<?xml version="1.0" encoding="UTF-8" standalone="no"?>
<!-- Created with Inkscape (http://www.inkscape.org/) -->

<svg
   version="1.1"
   id="svg18"
   width="445.64001"
   height="236"
   viewBox="0 0 445.64001 236"
   sodipodi:docname="logo.svg"
   inkscape:version="1.2.2 (b0a84865, 2022-12-01)"
   xmlns:inkscape="http://www.inkscape.org/namespaces/inkscape"
   xmlns:sodipodi="http://sodipodi.sourceforge.net/DTD/sodipodi-0.dtd"
   xmlns="http://www.w3.org/2000/svg"
   xmlns:svg="http://www.w3.org/2000/svg">
  <defs
     id="defs22">
    <clipPath
       clipPathUnits="userSpaceOnUse"
       id="clipPath40">
      <path
         d="m 345.137,368.852 c -6.625,0 -13.254,0.089 -19.942,0.277 6.672,-0.188 13.305,-0.277 19.914,-0.277 221.059,0.007 407.246,105.328 593.395,210.66 186.166,105.328 372.306,210.652 593.396,210.652 12.81,0 25.77,-0.355 38.81,-1.082 -51.05,153.992 -102.1,307.988 -153.15,461.988 v 0 c -51.05,154 -102.1,308 -153.15,462 -13.07,0.73 -25.99,1.08 -38.82,1.08 -181.16,0 -338.906,-70.75 -492.387,-154.25 153.485,83.51 311.227,154.25 492.387,154.25 12.83,0 25.76,-0.35 38.83,-1.08 34.04,-102.67 68.08,-205.33 102.1,-307.99 34.04,-102.68 68.07,-205.33 102.11,-308 34.03,-102.678 68.06,-205.342 102.1,-308.01 -13.06,0.731 -26,1.086 -38.82,1.086 -221.08,0 -407.24,-105.328 -593.394,-210.656 C 752.367,474.18 566.195,368.852 345.137,368.852 M 191.98,830.848 v 0 0 0 m 0.04,0 C 410.645,830.871 595.16,933.902 779.27,1038.05 595.148,933.895 410.664,830.855 192.02,830.848 m -37.825,1.027 c -0.347,0.02 -0.703,0.039 -1.05,0.059 0.003,0 0.003,0 0.003,0 0.344,-0.02 0.7,-0.039 1.047,-0.059 m -32.007,93.449 c -6.696,20.196 -13.391,40.399 -20.086,60.594 -0.043,0.125 -0.086,0.254 -0.129,0.379 6.742,-20.328 13.472,-40.645 20.215,-60.973 m 658.054,113.286 c 0.352,0.19 0.696,0.39 1.043,0.59 -0.347,-0.2 -0.691,-0.4 -1.043,-0.59 m 3.742,2.11 c 0.118,0.07 0.239,0.14 0.36,0.21 -0.121,-0.07 -0.242,-0.14 -0.36,-0.21 m 1.379,0.78 c 0.266,0.15 0.516,0.3 0.782,0.45 -0.266,-0.15 -0.516,-0.3 -0.782,-0.45 m 21.785,12.32 c 178.911,101.04 359.042,198.29 571.442,198.34 -212.38,-0.06 -392.543,-97.3 -571.442,-198.34 m 610.412,197.25 c -0.35,0.02 -0.69,0.04 -1.04,0.06 0.35,-0.02 0.69,-0.04 1.04,-0.06 m -38.8,1.09 h -0.01 v 0 h 0.01 M 38.8164,1292.84 c -12.8047,0 -25.7695,0.35 -38.8164,1.08 0,0.01 0,0.01 0,0.01 13.0625,-0.73 26.0039,-1.09 38.8242,-1.09 198.1168,0 368.1958,84.59 535.3598,177.96 C 407.008,1377.43 236.949,1292.84 38.8164,1292.84"
         id="path38" />
    </clipPath>
    <linearGradient
       x1="0"
       y1="0"
       x2="1"
       y2="0"
       gradientUnits="userSpaceOnUse"
       gradientTransform="matrix(-1245,-500,500,-1245,1408.93,1291.93)"
       spreadMethod="pad"
       id="linearGradient50">
      <stop
         style="stop-opacity:1;stop-color:#e9e8e8"
         offset="0"
         id="stop42" />
      <stop
         style="stop-opacity:1;stop-color:#fffffe"
         offset="0.272727"
         id="stop44" />
      <stop
         style="stop-opacity:1;stop-color:#f0f0ef"
         offset="0.648485"
         id="stop46" />
      <stop
         style="stop-opacity:1;stop-color:#fafafa"
         offset="1"
         id="stop48" />
    </linearGradient>
    <clipPath
       clipPathUnits="userSpaceOnUse"
       id="clipPath60">
      <path
         d="m 345.109,368.852 c -6.609,0 -13.242,0.089 -19.914,0.277 -6.269,0.18 -12.57,0.453 -18.894,0.801 -34.035,102.672 -68.071,205.332 -102.09,307.992 -17.027,51.34 -34.043,102.672 -51.063,154.012 0.344,-0.02 0.7,-0.039 1.047,-0.059 12.719,-0.691 25.293,-1.027 37.785,-1.027 v 0 0 0 c 0.016,0 0.024,0 0.04,0 218.644,0.007 403.128,103.047 587.25,207.202 0.324,0.19 0.648,0.37 0.972,0.56 0.352,0.19 0.696,0.39 1.043,0.59 0.903,0.51 1.797,1.01 2.699,1.52 0.118,0.07 0.239,0.14 0.36,0.21 0.336,0.19 0.683,0.38 1.019,0.57 v 0 c 0.266,0.15 0.516,0.3 0.782,0.45 6.996,3.95 14.007,7.92 21.003,11.87 178.899,101.04 359.062,198.28 571.442,198.34 0.05,0 0.1,0 0.16,0 h 0.01 c 12.46,0 25.07,-0.34 37.76,-1.03 0.35,-0.02 0.69,-0.04 1.04,-0.06 v 0 0 0 c 51.05,-154 102.1,-307.996 153.15,-461.988 -13.04,0.727 -26,1.082 -38.81,1.082 -221.09,0 -407.23,-105.324 -593.396,-210.652 C 752.355,474.18 566.168,368.859 345.109,368.852"
         id="path58" />
    </clipPath>
    <linearGradient
       x1="0"
       y1="0"
       x2="1"
       y2="0"
       gradientUnits="userSpaceOnUse"
       gradientTransform="matrix(-1245,-500,500,-1245,1408.93,1291.93)"
       spreadMethod="pad"
       id="linearGradient70">
      <stop
         style="stop-opacity:1;stop-color:#e5c40d"
         offset="0"
         id="stop62" />
      <stop
         style="stop-opacity:1;stop-color:#f9d406"
         offset="0.272727"
         id="stop64" />
      <stop
         style="stop-opacity:1;stop-color:#ebc90b"
         offset="0.648485"
         id="stop66" />
      <stop
         style="stop-opacity:1;stop-color:#f4d008"
         offset="1"
         id="stop68" />
    </linearGradient>
    <clipPath
       clipPathUnits="userSpaceOnUse"
       id="clipPath80">
      <path
         d="m 191.98,830.848 v 0 0 c -12.492,0 -25.066,0.336 -37.785,1.027 -0.347,0.02 -0.703,0.039 -1.05,0.059 -10.317,31.129 -20.637,62.261 -30.957,93.39 -6.743,20.328 -13.473,40.645 -20.215,60.973 C 67.9922,1088.85 33.9922,1191.38 0,1293.93 c 13.0469,-0.74 26.0117,-1.09 38.8164,-1.09 198.1326,0 368.1916,84.59 535.3676,177.96 19.367,10.83 38.695,21.76 58.027,32.7 33.598,19.01 67.187,38.01 100.992,56.4 153.481,83.5 311.227,154.25 492.387,154.25 12.83,0 25.75,-0.35 38.82,-1.08 51.05,-154 102.1,-308 153.15,-462 v 0 0 c -0.35,0.02 -0.69,0.04 -1.04,0.06 -12.69,0.69 -25.3,1.03 -37.76,1.03 h -0.01 v 0 c -0.06,0 -0.11,0 -0.16,0 -212.4,-0.05 -392.531,-97.3 -571.442,-198.34 -6.996,-3.95 -14.007,-7.92 -21.003,-11.87 -0.266,-0.15 -0.516,-0.3 -0.782,-0.45 v 0 c -0.336,-0.19 -0.683,-0.38 -1.019,-0.57 -0.121,-0.07 -0.242,-0.14 -0.36,-0.21 -0.902,-0.51 -1.796,-1.01 -2.699,-1.52 -0.347,-0.2 -0.691,-0.4 -1.043,-0.59 -0.324,-0.19 -0.648,-0.37 -0.972,-0.56 C 595.16,933.902 410.645,830.871 192.02,830.848 c -0.016,0 -0.024,0 -0.04,0"
         id="path78" />
    </clipPath>
    <linearGradient
       x1="0"
       y1="0"
       x2="1"
       y2="0"
       gradientUnits="userSpaceOnUse"
       gradientTransform="matrix(-1245,-500,500,-1245,1408.93,1291.93)"
       spreadMethod="pad"
       id="linearGradient90">
      <stop
         style="stop-opacity:1;stop-color:#355eac"
         offset="0"
         id="stop82" />
      <stop
         style="stop-opacity:1;stop-color:#3661b6"
         offset="0.272727"
         id="stop84" />
      <stop
         style="stop-opacity:1;stop-color:#365faf"
         offset="0.648485"
         id="stop86" />
      <stop
         style="stop-opacity:1;stop-color:#3660b4"
         offset="1"
         id="stop88" />
    </linearGradient>
    <clipPath
       clipPathUnits="userSpaceOnUse"
       id="clipPath100">
      <path
         d="m 1891.71,33.0117 -63.93,-21.2929 -578.57,1736.9512 63.92,21.29 z"
         id="path98" />
    </clipPath>
    <linearGradient
       x1="0"
       y1="0"
       x2="1"
       y2="0"
       gradientUnits="userSpaceOnUse"
       gradientTransform="matrix(63.9446,21.2991,21.2991,-63.9446,1538.49,880.189)"
       spreadMethod="pad"
       id="linearGradient132">
      <stop
         style="stop-opacity:1;stop-color:#d2d2d0"
         offset="0"
         id="stop102" />
      <stop
         style="stop-opacity:1;stop-color:#ffffff"
         offset="0.04024608"
         id="stop104" />
      <stop
         style="stop-opacity:1;stop-color:#ffffff"
         offset="0.0969697"
         id="stop106" />
      <stop
         style="stop-opacity:1;stop-color:#94969b"
         offset="0.15822702"
         id="stop108" />
      <stop
         style="stop-opacity:1;stop-color:#94969b"
         offset="0.230303"
         id="stop110" />
      <stop
         style="stop-opacity:1;stop-color:#d3d3d3"
         offset="0.28215336"
         id="stop112" />
      <stop
         style="stop-opacity:1;stop-color:#d3d3d3"
         offset="0.369697"
         id="stop114" />
      <stop
         style="stop-opacity:1;stop-color:#505055"
         offset="0.46857956"
         id="stop116" />
      <stop
         style="stop-opacity:1;stop-color:#505055"
         offset="0.642424"
         id="stop118" />
      <stop
         style="stop-opacity:1;stop-color:#7b7e81"
         offset="0.66952473"
         id="stop120" />
      <stop
         style="stop-opacity:1;stop-color:#7b7e81"
         offset="0.745455"
         id="stop122" />
      <stop
         style="stop-opacity:1;stop-color:#ffffff"
         offset="0.77224327"
         id="stop124" />
      <stop
         style="stop-opacity:1;stop-color:#ffffff"
         offset="0.878788"
         id="stop126" />
      <stop
         style="stop-opacity:1;stop-color:#afafb2"
         offset="0.93762735"
         id="stop128" />
      <stop
         style="stop-opacity:1;stop-color:#afafb2"
         offset="1"
         id="stop130" />
    </linearGradient>
    <clipPath
       clipPathUnits="userSpaceOnUse"
       id="clipPath142">
      <path
         d="M 1715.4,15.9219 C 1715.4,7.12891 1722.52,0 1731.32,0 h 263.3 c 8.8,0 15.92,7.12891 15.92,15.9219 0,8.789 -7.12,15.9062 -15.92,15.9062 h -263.3 c -8.8,0 -15.92,-7.1172 -15.92,-15.9062 z"
         id="path140" />
    </clipPath>
    <linearGradient
       x1="0"
       y1="0"
       x2="1"
       y2="0"
       gradientUnits="userSpaceOnUse"
       gradientTransform="matrix(-295.137,0,0,-295.137,2010.54,15.9199)"
       spreadMethod="pad"
       id="linearGradient150">
      <stop
         style="stop-opacity:1;stop-color:#ffffff"
         offset="0"
         id="stop144" />
      <stop
         style="stop-opacity:1;stop-color:#b7b6b6"
         offset="0.533333"
         id="stop146" />
      <stop
         style="stop-opacity:1;stop-color:#ffffff"
         offset="1"
         id="stop148" />
    </linearGradient>
    <clipPath
       clipPathUnits="userSpaceOnUse"
       id="clipPath160">
      <path
         d="M 0,0 H 3342 V 1770 H 0 Z"
         id="path158" />
    </clipPath>
    <clipPath
       clipPathUnits="userSpaceOnUse"
       id="clipPath166">
      <path
         d="m 3025.69,369.43 c -472.49,-19.551 -774.02,452.758 -1246.51,433.207 105.54,303.633 211.05,607.263 316.59,910.913 472.48,19.56 774.02,-452.75 1246.52,-433.22 -105.54,-303.611 -211.07,-607.26 -316.6,-910.9 z"
         id="path164" />
    </clipPath>
    <linearGradient
       x1="0"
       y1="0"
       x2="1"
       y2="0"
       gradientUnits="userSpaceOnUse"
       gradientTransform="matrix(1475.63,-515.555,-515.555,-1475.63,1856.81,1287.43)"
       spreadMethod="pad"
       id="linearGradient176">
      <stop
         style="stop-opacity:1;stop-color:#fffffe"
         offset="0"
         id="stop168" />
      <stop
         style="stop-opacity:1;stop-color:#e8e8e6"
         offset="0.315152"
         id="stop170" />
      <stop
         style="stop-opacity:1;stop-color:#ffffff"
         offset="0.733333"
         id="stop172" />
      <stop
         style="stop-opacity:1;stop-color:#dad9d8"
         offset="1"
         id="stop174" />
    </linearGradient>
    <clipPath
       clipPathUnits="userSpaceOnUse"
       id="clipPath186">
      <path
         d="m 3025.69,369.43 c -472.49,-19.551 -774.02,452.758 -1246.51,433.207 7.84,22.5 15.63,44.98 23.46,67.5 472.5,19.551 774.02,-452.797 1246.5,-433.246 -7.8,-22.481 -15.62,-44.981 -23.45,-67.461 z"
         id="path184" />
    </clipPath>
    <linearGradient
       x1="0"
       y1="0"
       x2="1"
       y2="0"
       gradientUnits="userSpaceOnUse"
       gradientTransform="matrix(1198.54,-419.893,-419.893,-1198.54,1848.59,817.919)"
       spreadMethod="pad"
       id="linearGradient202">
      <stop
         style="stop-opacity:1;stop-color:#ed1b36"
         offset="0"
         id="stop188" />
      <stop
         style="stop-opacity:1;stop-color:#ed1b36"
         offset="0.01748736"
         id="stop190" />
      <stop
         style="stop-opacity:1;stop-color:#d51b3a"
         offset="0.357576"
         id="stop192" />
      <stop
         style="stop-opacity:1;stop-color:#d51b3a"
         offset="0.38672627"
         id="stop194" />
      <stop
         style="stop-opacity:1;stop-color:#ed1b36"
         offset="0.751515"
         id="stop196" />
      <stop
         style="stop-opacity:1;stop-color:#d51b3a"
         offset="0.94377389"
         id="stop198" />
      <stop
         style="stop-opacity:1;stop-color:#d51b3a"
         offset="1"
         id="stop200" />
    </linearGradient>
    <clipPath
       clipPathUnits="userSpaceOnUse"
       id="clipPath212">
      <path
         d="m 3074.54,510 c -472.48,-19.57 -774,452.773 -1246.49,433.223 7.81,22.48 15.63,44.98 23.44,67.457 472.49,19.57 774.01,-452.75 1246.52,-433.2 -7.82,-22.519 -15.64,-44.98 -23.47,-67.48 z"
         id="path210" />
    </clipPath>
    <linearGradient
       x1="0"
       y1="0"
       x2="1"
       y2="0"
       gradientUnits="userSpaceOnUse"
       gradientTransform="matrix(1203.01,-406.896,-406.896,-1203.01,1893.23,953.061)"
       spreadMethod="pad"
       id="linearGradient228">
      <stop
         style="stop-opacity:1;stop-color:#ed1b36"
         offset="0"
         id="stop214" />
      <stop
         style="stop-opacity:1;stop-color:#ed1b36"
         offset="0.01748736"
         id="stop216" />
      <stop
         style="stop-opacity:1;stop-color:#d51b3a"
         offset="0.357576"
         id="stop218" />
      <stop
         style="stop-opacity:1;stop-color:#d51b3a"
         offset="0.38672627"
         id="stop220" />
      <stop
         style="stop-opacity:1;stop-color:#ed1b36"
         offset="0.751515"
         id="stop222" />
      <stop
         style="stop-opacity:1;stop-color:#d51b3a"
         offset="0.94377389"
         id="stop224" />
      <stop
         style="stop-opacity:1;stop-color:#d51b3a"
         offset="1"
         id="stop226" />
    </linearGradient>
    <clipPath
       clipPathUnits="userSpaceOnUse"
       id="clipPath238">
      <path
         d="m 3123.41,650.57 c -472.5,-19.558 -774.02,452.77 -1246.52,433.22 7.83,22.48 15.63,44.98 23.46,67.48 472.48,19.55 774.02,-452.79 1246.51,-433.239 -7.83,-22.461 -15.64,-44.961 -23.45,-67.461 z"
         id="path236" />
    </clipPath>
    <linearGradient
       x1="0"
       y1="0"
       x2="1"
       y2="0"
       gradientUnits="userSpaceOnUse"
       gradientTransform="matrix(1209.76,-386.383,-386.383,-1209.76,1935.67,1084.95)"
       spreadMethod="pad"
       id="linearGradient254">
      <stop
         style="stop-opacity:1;stop-color:#ed1b36"
         offset="0"
         id="stop240" />
      <stop
         style="stop-opacity:1;stop-color:#ed1b36"
         offset="0.01748736"
         id="stop242" />
      <stop
         style="stop-opacity:1;stop-color:#d51b3a"
         offset="0.357576"
         id="stop244" />
      <stop
         style="stop-opacity:1;stop-color:#d51b3a"
         offset="0.38672627"
         id="stop246" />
      <stop
         style="stop-opacity:1;stop-color:#ed1b36"
         offset="0.751515"
         id="stop248" />
      <stop
         style="stop-opacity:1;stop-color:#d51b3a"
         offset="0.94377389"
         id="stop250" />
      <stop
         style="stop-opacity:1;stop-color:#d51b3a"
         offset="1"
         id="stop252" />
    </linearGradient>
    <clipPath
       clipPathUnits="userSpaceOnUse"
       id="clipPath264">
      <path
         d="m 3172.27,791.152 c -472.49,-19.55 -774.03,452.778 -1246.52,433.228 7.83,22.5 15.64,44.96 23.45,67.48 472.5,19.53 774.02,-452.797 1246.51,-433.247 -7.82,-22.5 -15.62,-44.961 -23.44,-67.461 z"
         id="path262" />
    </clipPath>
    <linearGradient
       x1="0"
       y1="0"
       x2="1"
       y2="0"
       gradientUnits="userSpaceOnUse"
       gradientTransform="matrix(1202.18,-409.363,-409.363,-1202.18,1991.73,1235.26)"
       spreadMethod="pad"
       id="linearGradient280">
      <stop
         style="stop-opacity:1;stop-color:#ed1b36"
         offset="0"
         id="stop266" />
      <stop
         style="stop-opacity:1;stop-color:#ed1b36"
         offset="0.01748736"
         id="stop268" />
      <stop
         style="stop-opacity:1;stop-color:#d51b3a"
         offset="0.357576"
         id="stop270" />
      <stop
         style="stop-opacity:1;stop-color:#d51b3a"
         offset="0.38672627"
         id="stop272" />
      <stop
         style="stop-opacity:1;stop-color:#ed1b36"
         offset="0.751515"
         id="stop274" />
      <stop
         style="stop-opacity:1;stop-color:#d51b3a"
         offset="0.94377389"
         id="stop276" />
      <stop
         style="stop-opacity:1;stop-color:#d51b3a"
         offset="1"
         id="stop278" />
    </linearGradient>
    <clipPath
       clipPathUnits="userSpaceOnUse"
       id="clipPath290">
      <path
         d="m 3221.11,931.719 c -472.48,-19.551 -774.01,452.771 -1246.5,433.221 7.82,22.48 15.63,44.98 23.45,67.48 472.5,19.55 774.03,-452.772 1246.51,-433.221 -7.81,-22.48 -15.62,-44.98 -23.46,-67.48 z"
         id="path288" />
    </clipPath>
    <linearGradient
       x1="0"
       y1="0"
       x2="1"
       y2="0"
       gradientUnits="userSpaceOnUse"
       gradientTransform="matrix(1195.26,-429.116,-429.116,-1195.26,2047.12,1384.01)"
       spreadMethod="pad"
       id="linearGradient306">
      <stop
         style="stop-opacity:1;stop-color:#ed1b36"
         offset="0"
         id="stop292" />
      <stop
         style="stop-opacity:1;stop-color:#ed1b36"
         offset="0.01748736"
         id="stop294" />
      <stop
         style="stop-opacity:1;stop-color:#d51b3a"
         offset="0.357576"
         id="stop296" />
      <stop
         style="stop-opacity:1;stop-color:#d51b3a"
         offset="0.38672627"
         id="stop298" />
      <stop
         style="stop-opacity:1;stop-color:#ed1b36"
         offset="0.751515"
         id="stop300" />
      <stop
         style="stop-opacity:1;stop-color:#d51b3a"
         offset="0.94377389"
         id="stop302" />
      <stop
         style="stop-opacity:1;stop-color:#d51b3a"
         offset="1"
         id="stop304" />
    </linearGradient>
    <clipPath
       clipPathUnits="userSpaceOnUse"
       id="clipPath316">
      <path
         d="m 3269.97,1072.29 c -472.49,-19.56 -774,452.77 -1246.51,433.22 7.81,22.5 15.63,44.98 23.46,67.48 472.48,19.55 774.01,-452.78 1246.5,-433.22 -7.81,-22.5 -15.63,-44.98 -23.45,-67.48 z"
         id="path314" />
    </clipPath>
    <linearGradient
       x1="0"
       y1="0"
       x2="1"
       y2="0"
       gradientUnits="userSpaceOnUse"
       gradientTransform="matrix(1227.66,-325.049,-325.049,-1227.66,2065.06,1479.75)"
       spreadMethod="pad"
       id="linearGradient332">
      <stop
         style="stop-opacity:1;stop-color:#ed1b36"
         offset="0"
         id="stop318" />
      <stop
         style="stop-opacity:1;stop-color:#ed1b36"
         offset="0.01748736"
         id="stop320" />
      <stop
         style="stop-opacity:1;stop-color:#d51b3a"
         offset="0.357576"
         id="stop322" />
      <stop
         style="stop-opacity:1;stop-color:#d51b3a"
         offset="0.38672627"
         id="stop324" />
      <stop
         style="stop-opacity:1;stop-color:#ed1b36"
         offset="0.751515"
         id="stop326" />
      <stop
         style="stop-opacity:1;stop-color:#d51b3a"
         offset="0.94377389"
         id="stop328" />
      <stop
         style="stop-opacity:1;stop-color:#d51b3a"
         offset="1"
         id="stop330" />
    </linearGradient>
    <clipPath
       clipPathUnits="userSpaceOnUse"
       id="clipPath342">
      <path
         d="M 0,0 H 3342 V 1770 H 0 Z"
         id="path340" />
    </clipPath>
    <clipPath
       clipPathUnits="userSpaceOnUse"
       id="clipPath348">
      <path
         d="m 3318.83,1212.85 c -472.49,-19.53 -774.03,452.79 -1246.51,433.24 7.81,22.48 15.64,44.98 23.45,67.46 472.48,19.56 774.02,-452.75 1246.52,-433.22 -7.84,-22.48 -15.64,-44.98 -23.46,-67.48 z"
         id="path346" />
    </clipPath>
    <linearGradient
       x1="0"
       y1="0"
       x2="1"
       y2="0"
       gradientUnits="userSpaceOnUse"
       gradientTransform="matrix(1220.73,-350.16,-350.16,-1220.73,2120.6,1631.5)"
       spreadMethod="pad"
       id="linearGradient364">
      <stop
         style="stop-opacity:1;stop-color:#ed1b36"
         offset="0"
         id="stop350" />
      <stop
         style="stop-opacity:1;stop-color:#ed1b36"
         offset="0.01748736"
         id="stop352" />
      <stop
         style="stop-opacity:1;stop-color:#d51b3a"
         offset="0.357576"
         id="stop354" />
      <stop
         style="stop-opacity:1;stop-color:#d51b3a"
         offset="0.38672627"
         id="stop356" />
      <stop
         style="stop-opacity:1;stop-color:#ed1b36"
         offset="0.751515"
         id="stop358" />
      <stop
         style="stop-opacity:1;stop-color:#d51b3a"
         offset="0.94377389"
         id="stop360" />
      <stop
         style="stop-opacity:1;stop-color:#d51b3a"
         offset="1"
         id="stop362" />
    </linearGradient>
    <clipPath
       clipPathUnits="userSpaceOnUse"
       id="clipPath476">
      <path
         d="m 1474.74,33.0117 63.92,-21.2929 578.58,1736.9512 -63.93,21.29 z"
         id="path474" />
    </clipPath>
    <linearGradient
       x1="0"
       y1="0"
       x2="1"
       y2="0"
       gradientUnits="userSpaceOnUse"
       gradientTransform="matrix(-63.9353,21.2961,-21.2961,-63.9353,1827.96,880.189)"
       spreadMethod="pad"
       id="linearGradient508">
      <stop
         style="stop-opacity:1;stop-color:#d2d2d0"
         offset="0"
         id="stop478" />
      <stop
         style="stop-opacity:1;stop-color:#ffffff"
         offset="0.04024608"
         id="stop480" />
      <stop
         style="stop-opacity:1;stop-color:#ffffff"
         offset="0.0969697"
         id="stop482" />
      <stop
         style="stop-opacity:1;stop-color:#94969b"
         offset="0.15822702"
         id="stop484" />
      <stop
         style="stop-opacity:1;stop-color:#94969b"
         offset="0.230303"
         id="stop486" />
      <stop
         style="stop-opacity:1;stop-color:#d3d3d3"
         offset="0.28215336"
         id="stop488" />
      <stop
         style="stop-opacity:1;stop-color:#d3d3d3"
         offset="0.369697"
         id="stop490" />
      <stop
         style="stop-opacity:1;stop-color:#505055"
         offset="0.46857956"
         id="stop492" />
      <stop
         style="stop-opacity:1;stop-color:#505055"
         offset="0.642424"
         id="stop494" />
      <stop
         style="stop-opacity:1;stop-color:#7b7e81"
         offset="0.66952473"
         id="stop496" />
      <stop
         style="stop-opacity:1;stop-color:#7b7e81"
         offset="0.745455"
         id="stop498" />
      <stop
         style="stop-opacity:1;stop-color:#ffffff"
         offset="0.77224327"
         id="stop500" />
      <stop
         style="stop-opacity:1;stop-color:#ffffff"
         offset="0.878788"
         id="stop502" />
      <stop
         style="stop-opacity:1;stop-color:#afafb2"
         offset="0.93762735"
         id="stop504" />
      <stop
         style="stop-opacity:1;stop-color:#afafb2"
         offset="1"
         id="stop506" />
    </linearGradient>
    <clipPath
       clipPathUnits="userSpaceOnUse"
       id="clipPath518">
      <path
         d="M 1651.04,15.9219 C 1651.04,7.12891 1643.93,0 1635.13,0 h -263.3 c -8.8,0 -15.92,7.12891 -15.92,15.9219 0,8.789 7.12,15.9062 15.92,15.9062 h 263.3 c 8.8,0 15.91,-7.1172 15.91,-15.9062 z"
         id="path516" />
    </clipPath>
    <linearGradient
       x1="0"
       y1="0"
       x2="1"
       y2="0"
       gradientUnits="userSpaceOnUse"
       gradientTransform="matrix(295.137,0,0,-295.137,1355.91,15.9199)"
       spreadMethod="pad"
       id="linearGradient526">
      <stop
         style="stop-opacity:1;stop-color:#ffffff"
         offset="0"
         id="stop520" />
      <stop
         style="stop-opacity:1;stop-color:#b7b6b6"
         offset="0.533333"
         id="stop522" />
      <stop
         style="stop-opacity:1;stop-color:#ffffff"
         offset="1"
         id="stop524" />
    </linearGradient>
  </defs>
  <sodipodi:namedview
     id="namedview20"
     pagecolor="#ffffff"
     bordercolor="#000000"
     borderopacity="0.25"
     inkscape:showpageshadow="2"
     inkscape:pageopacity="0.0"
     inkscape:pagecheckerboard="0"
     inkscape:deskcolor="#d1d1d1"
     showgrid="false"
     inkscape:zoom="1"
     inkscape:cx="223"
     inkscape:cy="118"
     inkscape:window-width="1419"
     inkscape:window-height="456"
     inkscape:window-x="46"
     inkscape:window-y="38"
     inkscape:window-maximized="0"
     inkscape:current-layer="g26">
    <inkscape:page
       x="0"
       y="0"
       id="page24"
       width="445.64001"
       height="236" />
  </sodipodi:namedview>
  <g
     id="g26"
     inkscape:groupmode="layer"
     inkscape:label="Page 1"
     transform="matrix(1.3333333,0,0,-1.3333333,0,236)">
    <g
       id="g28"
       transform="scale(0.1)">
      <path
         d="m 1417.56,1251.07 c 51.05,-154 102.1,-307.996 153.15,-461.988 -238.3,13.297 -435.26,-98.141 -632.206,-209.57 C 741.547,468.07 544.594,356.629 306.289,369.93 c -51.047,153.992 -102.098,308 -153.144,462.004 238.304,-13.305 435.261,98.132 632.218,209.566 196.95,111.44 393.897,222.87 632.197,209.57"
         style="fill:#f9d406;fill-opacity:1;fill-rule:nonzero;stroke:none"
         id="path30" />
      <path
         d="m 0,1293.92 c 238.301,-13.3 435.254,98.14 632.203,209.57 196.953,111.44 393.907,222.88 632.207,209.58 51.05,-154 102.1,-308 153.15,-462 -238.3,13.3 -435.247,-98.13 -632.197,-209.57 C 588.406,930.066 391.449,818.629 153.145,831.934 102.102,985.922 51.043,1139.92 0,1293.92"
         style="fill:#3661b6;fill-opacity:1;fill-rule:nonzero;stroke:none"
         id="path32" />
      <g
         id="g34">
        <g
           id="g36"
           clip-path="url(#clipPath40)">
          <path
             d="m 345.137,368.852 c -6.625,0 -13.254,0.089 -19.942,0.277 6.672,-0.188 13.305,-0.277 19.914,-0.277 221.059,0.007 407.246,105.328 593.395,210.66 186.166,105.328 372.306,210.652 593.396,210.652 12.81,0 25.77,-0.355 38.81,-1.082 -51.05,153.992 -102.1,307.988 -153.15,461.988 v 0 c -51.05,154 -102.1,308 -153.15,462 -13.07,0.73 -25.99,1.08 -38.82,1.08 -181.16,0 -338.906,-70.75 -492.387,-154.25 153.485,83.51 311.227,154.25 492.387,154.25 12.83,0 25.76,-0.35 38.83,-1.08 34.04,-102.67 68.08,-205.33 102.1,-307.99 34.04,-102.68 68.07,-205.33 102.11,-308 34.03,-102.678 68.06,-205.342 102.1,-308.01 -13.06,0.731 -26,1.086 -38.82,1.086 -221.08,0 -407.24,-105.328 -593.394,-210.656 C 752.367,474.18 566.195,368.852 345.137,368.852 M 191.98,830.848 v 0 0 0 m 0.04,0 C 410.645,830.871 595.16,933.902 779.27,1038.05 595.148,933.895 410.664,830.855 192.02,830.848 m -37.825,1.027 c -0.347,0.02 -0.703,0.039 -1.05,0.059 0.003,0 0.003,0 0.003,0 0.344,-0.02 0.7,-0.039 1.047,-0.059 m -32.007,93.449 c -6.696,20.196 -13.391,40.399 -20.086,60.594 -0.043,0.125 -0.086,0.254 -0.129,0.379 6.742,-20.328 13.472,-40.645 20.215,-60.973 m 658.054,113.286 c 0.352,0.19 0.696,0.39 1.043,0.59 -0.347,-0.2 -0.691,-0.4 -1.043,-0.59 m 3.742,2.11 c 0.118,0.07 0.239,0.14 0.36,0.21 -0.121,-0.07 -0.242,-0.14 -0.36,-0.21 m 1.379,0.78 c 0.266,0.15 0.516,0.3 0.782,0.45 -0.266,-0.15 -0.516,-0.3 -0.782,-0.45 m 21.785,12.32 c 178.911,101.04 359.042,198.29 571.442,198.34 -212.38,-0.06 -392.543,-97.3 -571.442,-198.34 m 610.412,197.25 c -0.35,0.02 -0.69,0.04 -1.04,0.06 0.35,-0.02 0.69,-0.04 1.04,-0.06 m -38.8,1.09 h -0.01 v 0 h 0.01 M 38.8164,1292.84 c -12.8047,0 -25.7695,0.35 -38.8164,1.08 0,0.01 0,0.01 0,0.01 13.0625,-0.73 26.0039,-1.09 38.8242,-1.09 198.1168,0 368.1958,84.59 535.3598,177.96 C 407.008,1377.43 236.949,1292.84 38.8164,1292.84"
             style="fill:url(#linearGradient50);fill-opacity:1;fill-rule:nonzero;stroke:none"
             id="path52" />
        </g>
      </g>
      <g
         id="g54">
        <g
           id="g56"
           clip-path="url(#clipPath60)">
          <path
             d="m 345.109,368.852 c -6.609,0 -13.242,0.089 -19.914,0.277 -6.269,0.18 -12.57,0.453 -18.894,0.801 -34.035,102.672 -68.071,205.332 -102.09,307.992 -17.027,51.34 -34.043,102.672 -51.063,154.012 0.344,-0.02 0.7,-0.039 1.047,-0.059 12.719,-0.691 25.293,-1.027 37.785,-1.027 v 0 0 0 c 0.016,0 0.024,0 0.04,0 218.644,0.007 403.128,103.047 587.25,207.202 0.324,0.19 0.648,0.37 0.972,0.56 0.352,0.19 0.696,0.39 1.043,0.59 0.903,0.51 1.797,1.01 2.699,1.52 0.118,0.07 0.239,0.14 0.36,0.21 0.336,0.19 0.683,0.38 1.019,0.57 v 0 c 0.266,0.15 0.516,0.3 0.782,0.45 6.996,3.95 14.007,7.92 21.003,11.87 178.899,101.04 359.062,198.28 571.442,198.34 0.05,0 0.1,0 0.16,0 h 0.01 c 12.46,0 25.07,-0.34 37.76,-1.03 0.35,-0.02 0.69,-0.04 1.04,-0.06 v 0 0 0 c 51.05,-154 102.1,-307.996 153.15,-461.988 -13.04,0.727 -26,1.082 -38.81,1.082 -221.09,0 -407.23,-105.324 -593.396,-210.652 C 752.355,474.18 566.168,368.859 345.109,368.852"
             style="fill:url(#linearGradient70);fill-opacity:1;fill-rule:nonzero;stroke:none"
             id="path72" />
        </g>
      </g>
      <g
         id="g74">
        <g
           id="g76"
           clip-path="url(#clipPath80)">
          <path
             d="m 191.98,830.848 v 0 0 c -12.492,0 -25.066,0.336 -37.785,1.027 -0.347,0.02 -0.703,0.039 -1.05,0.059 -10.317,31.129 -20.637,62.261 -30.957,93.39 -6.743,20.328 -13.473,40.645 -20.215,60.973 C 67.9922,1088.85 33.9922,1191.38 0,1293.93 c 13.0469,-0.74 26.0117,-1.09 38.8164,-1.09 198.1326,0 368.1916,84.59 535.3676,177.96 19.367,10.83 38.695,21.76 58.027,32.7 33.598,19.01 67.187,38.01 100.992,56.4 153.481,83.5 311.227,154.25 492.387,154.25 12.83,0 25.75,-0.35 38.82,-1.08 51.05,-154 102.1,-308 153.15,-462 v 0 0 c -0.35,0.02 -0.69,0.04 -1.04,0.06 -12.69,0.69 -25.3,1.03 -37.76,1.03 h -0.01 v 0 c -0.06,0 -0.11,0 -0.16,0 -212.4,-0.05 -392.531,-97.3 -571.442,-198.34 -6.996,-3.95 -14.007,-7.92 -21.003,-11.87 -0.266,-0.15 -0.516,-0.3 -0.782,-0.45 v 0 c -0.336,-0.19 -0.683,-0.38 -1.019,-0.57 -0.121,-0.07 -0.242,-0.14 -0.36,-0.21 -0.902,-0.51 -1.796,-1.01 -2.699,-1.52 -0.347,-0.2 -0.691,-0.4 -1.043,-0.59 -0.324,-0.19 -0.648,-0.37 -0.972,-0.56 C 595.16,933.902 410.645,830.871 192.02,830.848 c -0.016,0 -0.024,0 -0.04,0"
             style="fill:url(#linearGradient90);fill-opacity:1;fill-rule:nonzero;stroke:none"
             id="path92" />
        </g>
      </g>
      <g
         id="g94">
        <g
           id="g96"
           clip-path="url(#clipPath100)">
          <path
             d="M 1891.71,33.0117 1827.78,11.7188 1249.21,1748.67 1313.13,1769.96 1891.71,33.0117"
             style="fill:url(#linearGradient132);fill-opacity:1;fill-rule:nonzero;stroke:none"
             id="path134" />
        </g>
      </g>
      <g
         id="g136">
        <g
           id="g138"
           clip-path="url(#clipPath142)">
          <path
             d="M 1715.4,15.9219 C 1715.4,7.12891 1722.52,0 1731.32,0 h 263.3 c 8.8,0 15.92,7.12891 15.92,15.9219 0,8.789 -7.12,15.9062 -15.92,15.9062 h -263.3 c -8.8,0 -15.92,-7.1172 -15.92,-15.9062"
             style="fill:url(#linearGradient150);fill-opacity:1;fill-rule:nonzero;stroke:none"
             id="path152" />
        </g>
      </g>
      <g
         id="g154">
        <g
           id="g156"
           clip-path="url(#clipPath160)">
          <g
             id="g162"
             clip-path="url(#clipPath166)">
            <path
               d="m 2986,368 v 1 h -23 v 1 h -19 v 1 h -12 v 1 h -8 v 1 h -9 v 1 h -9 v 1 h -9 v 1 h -6 v 1 h -5 v 1 h -6 v 1 h -6 v 1 h -6 v 1 h -6 v 1 h -5 v 1 h -5 v 1 h -4 v 1 h -5 v 1 h -4 v 1 h -4 v 1 h -5 v 1 h -4 v 1 h -4 v 1 h -5 v 1 h -4 v 1 h -3 v 1 h -4 v 1 h -3 v 1 h -4 v 1 h -3 v 1 h -4 v 1 h -3 v 1 h -4 v 1 h -3 v 1 h -4 v 1 h -3 v 1 h -3 v 1 h -3 v 1 h -3 v 1 h -3 v 1 h -3 v 1 h -3 v 1 h -3 v 1 h -3 v 1 h -3 v 1 h -3 v 1 h -3 v 1 h -3 v 1 h -3 v 1 h -3 v 1 h -2 v 1 h -3 v 1 h -3 v 1 h -2 v 1 h -3 v 1 h -2 v 1 h -3 v 1 h -3 v 1 h -2 v 1 h -3 v 1 h -3 v 1 h -2 v 1 h -3 v 1 h -2 v 1 h -3 v 1 h -2 v 1 h -2 v 1 h -3 v 1 h -2 v 1 h -2 v 1 h -3 v 1 h -2 v 1 h -3 v 1 h -2 v 1 h -2 v 1 h -3 v 1 h -2 v 1 h -2 v 1 h -3 v 1 h -2 v 1 h -2 v 1 h -2 v 1 h -2 v 1 h -3 v 1 h -2 v 1 h -2 v 1 h -2 v 1 h -2 v 1 h -2 v 1 h -3 v 1 h -2 v 1 h -2 v 1 h -2 v 1 h -2 v 1 h -2 v 1 h -3 v 1 h -2 v 1 h -2 v 1 h -2 v 1 h -2 v 1 h -2 v 1 h -2 v 1 h -2 v 1 h -2 v 1 h -2 v 1 h -2 v 1 h -2 v 1 h -2 v 1 h -2 v 1 h -2 v 1 h -2 v 1 h -2 v 1 h -2 v 1 h -2 v 1 h -2 v 1 h -2 v 1 h -2 v 1 h -2 v 1 h -2 v 1 h -2 v 1 h -1 v 1 h -2 v 1 h -2 v 1 h -2 v 1 h -2 v 1 h -2 v 1 h -2 v 1 h -2 v 1 h -2 v 1 h -2 v 1 h -2 v 1 h -1 v 1 h -2 v 1 h -2 v 1 h -2 v 1 h -2 v 1 h -2 v 1 h -2 v 1 h -1 v 1 h -2 v 1 h -2 v 1 h -2 v 1 h -2 v 1 h -2 v 1 h -1 v 1 h -2 v 1 h -2 v 1 h -2 v 1 h -2 v 1 h -1 v 1 h -2 v 1 h -2 v 1 h -2 v 1 h -2 v 1 h -2 v 1 h -1 v 1 h -2 v 1 h -2 v 1 h -2 v 1 h -1 v 1 h -2 v 1 h -2 v 1 h -2 v 1 h -2 v 1 h -1 v 1 h -2 v 1 h -2 v 1 h -2 v 1 h -1 v 1 h -2 v 1 h -2 v 1 h -2 v 1 h -1 v 1 h -2 v 1 h -2 v 1 h -2 v 1 h -1 v 1 h -2 v 1 h -2 v 1 h -2 v 1 h -1 v 1 h -2 v 1 h -2 v 1 h -2 v 1 h -1 v 1 h -2 v 1 h -2 v 1 h -1 v 1 h -2 v 1 h -2 v 1 h -2 v 1 h -1 v 1 h -2 v 1 h -2 v 1 h -2 v 1 h -1 v 1 h -2 v 1 h -2 v 1 h -1 v 1 h -2 v 1 h -2 v 1 h -2 v 1 h -1 v 1 h -2 v 1 h -2 v 1 h -1 v 1 h -2 v 1 h -2 v 1 h -2 v 1 h -1 v 1 h -2 v 1 h -2 v 1 h -1 v 1 h -2 v 1 h -2 v 1 h -2 v 1 h -1 v 1 h -2 v 1 h -2 v 1 h -1 v 1 h -2 v 1 h -2 v 1 h -2 v 1 h -1 v 1 h -2 v 1 h -2 v 1 h -1 v 1 h -2 v 1 h -2 v 1 h -2 v 1 h -1 v 1 h -2 v 1 h -2 v 1 h -1 v 1 h -2 v 1 h -2 v 1 h -2 v 1 h -1 v 1 h -2 v 1 h -2 v 1 h -1 v 1 h -2 v 1 h -2 v 1 h -2 v 1 h -1 v 1 h -2 v 1 h -2 v 1 h -2 v 1 h -1 v 1 h -2 v 1 h -2 v 1 h -1 v 1 h -2 v 1 h -2 v 1 h -2 v 1 h -1 v 1 h -2 v 1 h -2 v 1 h -2 v 1 h -1 v 1 h -2 v 1 h -2 v 1 h -2 v 1 h -1 v 1 h -2 v 1 h -2 v 1 h -2 v 1 h -1 v 1 h -2 v 1 h -2 v 1 h -2 v 1 h -1 v 1 h -2 v 1 h -2 v 1 h -2 v 1 h -2 v 1 h -1 v 1 h -2 v 1 h -2 v 1 h -2 v 1 h -1 v 1 h -2 v 1 h -2 v 1 h -2 v 1 h -2 v 1 h -1 v 1 h -2 v 1 h -2 v 1 h -2 v 1 h -2 v 1 h -2 v 1 h -1 v 1 h -2 v 1 h -2 v 1 h -2 v 1 h -2 v 1 h -2 v 1 h -1 v 1 h -2 v 1 h -2 v 1 h -2 v 1 h -2 v 1 h -2 v 1 h -2 v 1 h -1 v 1 h -2 v 1 h -2 v 1 h -2 v 1 h -2 v 1 h -2 v 1 h -2 v 1 h -2 v 1 h -2 v 1 h -2 v 1 h -2 v 1 h -1 v 1 h -2 v 1 h -2 v 1 h -2 v 1 h -2 v 1 h -2 v 1 h -2 v 1 h -2 v 1 h -2 v 1 h -2 v 1 h -2 v 1 h -2 v 1 h -2 v 1 h -2 v 1 h -2 v 1 h -2 v 1 h -2 v 1 h -2 v 1 h -2 v 1 h -2 v 1 h -2 v 1 h -2 v 1 h -2 v 1 h -2 v 1 h -2 v 1 h -3 v 1 h -2 v 1 h -2 v 1 h -2 v 1 h -2 v 1 h -2 v 1 h -3 v 1 h -2 v 1 h -2 v 1 h -2 v 1 h -2 v 1 h -2 v 1 h -2 v 1 h -3 v 1 h -2 v 1 h -2 v 1 h -2 v 1 h -3 v 1 h -2 v 1 h -2 v 1 h -3 v 1 h -2 v 1 h -2 v 1 h -3 v 1 h -2 v 1 h -2 v 1 h -3 v 1 h -2 v 1 h -3 v 1 h -2 v 1 h -2 v 1 h -3 v 1 h -2 v 1 h -3 v 1 h -2 v 1 h -3 v 1 h -3 v 1 h -2 v 1 h -3 v 1 h -2 v 1 h -3 v 1 h -3 v 1 h -2 v 1 h -3 v 1 h -3 v 1 h -2 v 1 h -3 v 1 h -3 v 1 h -3 v 1 h -3 v 1 h -3 v 1 h -3 v 1 h -3 v 1 h -3 v 1 h -3 v 1 h -3 v 1 h -3 v 1 h -3 v 1 h -3 v 1 h -3 v 1 h -3 v 1 h -3 v 1 h -4 v 1 h -4 v 1 h -3 v 1 h -4 v 1 h -3 v 1 h -4 v 1 h -3 v 1 h -4 v 1 h -3 v 1 h -4 v 1 h -4 v 1 h -5 v 1 h -4 v 1 h -4 v 1 h -5 v 1 h -4 v 1 h -5 v 1 h -4 v 1 h -4 v 1 h -6 v 1 h -6 v 1 h -6 v 1 h -5 v 1 h -6 v 1 h -6 v 1 h -6 v 1 h -9 v 1 h -8 v 1 h -9 v 1 h -9 v 1 h -11 v 1 h -19 v 1 h -18 v 1 h -35 v -1 h -10 v 3 h 1 v 3 h 1 v 3 h 1 v 3 h 1 v 3 h 1 v 3 h 1 v 3 h 1 v 3 h 1 v 3 h 1 v 2 h 1 v 3 h 1 v 3 h 1 v 3 h 1 v 3 h 1 v 3 h 1 v 3 h 1 v 3 h 1 v 2 h 1 v 3 h 1 v 3 h 1 v 3 h 1 v 3 h 1 v 3 h 1 v 3 h 1 v 3 h 1 v 2 h 1 v 3 h 1 v 3 h 1 v 3 h 1 v 3 h 1 v 3 h 1 v 3 h 1 v 3 h 1 v 2 h 1 v 3 h 1 v 3 h 1 v 3 h 1 v 3 h 1 v 3 h 1 v 3 h 1 v 3 h 1 v 2 h 1 v 3 h 1 v 3 h 1 v 3 h 1 v 3 h 1 v 3 h 1 v 3 h 1 v 3 h 1 v 2 h 1 v 3 h 1 v 3 h 1 v 3 h 1 v 3 h 1 v 3 h 1 v 3 h 1 v 3 h 1 v 2 h 1 v 3 h 1 v 3 h 1 v 3 h 1 v 3 h 1 v 3 h 1 v 3 h 1 v 3 h 1 v 3 h 1 v 2 h 1 v 3 h 1 v 3 h 1 v 3 h 1 v 3 h 1 v 3 h 1 v 3 h 1 v 3 h 1 v 2 h 1 v 3 h 1 v 3 h 1 v 3 h 1 v 3 h 1 v 3 h 1 v 3 h 1 v 3 h 1 v 2 h 1 v 3 h 1 v 3 h 1 v 3 h 1 v 3 h 1 v 3 h 1 v 3 h 1 v 3 h 1 v 2 h 1 v 3 h 1 v 3 h 1 v 3 h 1 v 3 h 1 v 3 h 1 v 3 h 1 v 3 h 1 v 2 h 1 v 3 h 1 v 3 h 1 v 3 h 1 v 3 h 1 v 3 h 1 v 3 h 1 v 3 h 1 v 2 h 1 v 3 h 1 v 3 h 1 v 3 h 1 v 3 h 1 v 3 h 1 v 3 h 1 v 3 h 1 v 2 h 1 v 3 h 1 v 3 h 1 v 3 h 1 v 3 h 1 v 3 h 1 v 3 h 1 v 3 h 1 v 3 h 1 v 2 h 1 v 3 h 1 v 3 h 1 v 3 h 1 v 3 h 1 v 3 h 1 v 3 h 1 v 3 h 1 v 2 h 1 v 3 h 1 v 3 h 1 v 3 h 1 v 3 h 1 v 3 h 1 v 3 h 1 v 3 h 1 v 2 h 1 v 3 h 1 v 3 h 1 v 3 h 1 v 3 h 1 v 3 h 1 v 3 h 1 v 3 h 1 v 2 h 1 v 3 h 1 v 3 h 1 v 3 h 1 v 3 h 1 v 3 h 1 v 3 h 1 v 3 h 1 v 2 h 1 v 3 h 1 v 3 h 1 v 3 h 1 v 3 h 1 v 3 h 1 v 3 h 1 v 3 h 1 v 2 h 1 v 3 h 1 v 3 h 1 v 3 h 1 v 3 h 1 v 3 h 1 v 3 h 1 v 3 h 1 v 3 h 1 v 2 h 1 v 3 h 1 v 3 h 1 v 3 h 1 v 3 h 1 v 3 h 1 v 3 h 1 v 3 h 1 v 2 h 1 v 3 h 1 v 3 h 1 v 3 h 1 v 3 h 1 v 3 h 1 v 3 h 1 v 3 h 1 v 2 h 1 v 3 h 1 v 3 h 1 v 3 h 1 v 3 h 1 v 3 h 1 v 3 h 1 v 3 h 1 v 2 h 1 v 3 h 1 v 3 h 1 v 3 h 1 v 3 h 1 v 3 h 1 v 3 h 1 v 3 h 1 v 2 h 1 v 3 h 1 v 3 h 1 v 3 h 1 v 3 h 1 v 3 h 1 v 3 h 1 v 3 h 1 v 2 h 1 v 3 h 1 v 3 h 1 v 3 h 1 v 3 h 1 v 3 h 1 v 3 h 1 v 3 h 1 v 2 h 1 v 3 h 1 v 3 h 1 v 3 h 1 v 3 h 1 v 3 h 1 v 3 h 1 v 3 h 1 v 3 h 1 v 2 h 1 v 3 h 1 v 3 h 1 v 3 h 1 v 3 h 1 v 3 h 1 v 3 h 1 v 3 h 1 v 2 h 1 v 3 h 1 v 3 h 1 v 3 h 1 v 3 h 1 v 3 h 1 v 3 h 1 v 3 h 1 v 2 h 1 v 3 h 1 v 3 h 1 v 3 h 1 v 3 h 1 v 3 h 1 v 3 h 1 v 3 h 1 v 2 h 1 v 3 h 1 v 3 h 1 v 3 h 1 v 3 h 1 v 3 h 1 v 3 h 1 v 3 h 1 v 2 h 1 v 3 h 1 v 3 h 1 v 3 h 1 v 3 h 1 v 3 h 1 v 3 h 1 v 3 h 1 v 2 h 1 v 3 h 1 v 3 h 1 v 3 h 1 v 3 h 1 v 3 h 1 v 3 h 1 v 3 h 1 v 3 h 1 v 2 h 1 v 3 h 1 v 3 h 1 v 3 h 1 v 3 h 1 v 3 h 1 v 3 h 1 v 3 h 1 v 2 h 1 v 3 h 1 v 3 h 1 v 3 h 1 v 3 h 1 v 3 h 1 v 3 h 1 v 3 h 1 v 2 h 1 v 3 h 1 v 3 h 1 v 3 h 1 v 3 h 1 v 3 h 1 v 3 h 1 v 3 h 1 v 2 h 1 v 3 h 1 v 3 h 1 v 3 h 1 v 3 h 1 v 3 h 1 v 3 h 1 v 3 h 1 v 2 h 1 v 3 h 1 v 3 h 1 v 3 h 1 v 3 h 1 v 3 h 1 v 2 h 11 v 1 h 6 v -1 h 46 v -1 h 19 v -1 h 12 v -1 h 9 v -1 h 9 v -1 h 8 v -1 h 9 v -1 h 6 v -1 h 6 v -1 h 6 v -1 h 5 v -1 h 6 v -1 h 6 v -1 h 6 v -1 h 4 v -1 h 5 v -1 h 4 v -1 h 4 v -1 h 5 v -1 h 4 v -1 h 4 v -1 h 5 v -1 h 4 v -1 h 4 v -1 h 4 v -1 h 3 v -1 h 4 v -1 h 3 v -1 h 4 v -1 h 3 v -1 h 4 v -1 h 3 v -1 h 4 v -1 h 3 v -1 h 4 v -1 h 3 v -1 h 3 v -1 h 3 v -1 h 3 v -1 h 3 v -1 h 3 v -1 h 3 v -1 h 3 v -1 h 3 v -1 h 3 v -1 h 3 v -1 h 3 v -1 h 3 v -1 h 2 v -1 h 3 v -1 h 2 v -1 h 3 v -1 h 3 v -1 h 2 v -1 h 3 v -1 h 3 v -1 h 2 v -1 h 3 v -1 h 2 v -1 h 3 v -1 h 3 v -1 h 2 v -1 h 3 v -1 h 2 v -1 h 2 v -1 h 3 v -1 h 2 v -1 h 3 v -1 h 2 v -1 h 2 v -1 h 3 v -1 h 2 v -1 h 2 v -1 h 3 v -1 h 2 v -1 h 2 v -1 h 3 v -1 h 2 v -1 h 2 v -1 h 3 v -1 h 2 v -1 h 2 v -1 h 2 v -1 h 2 v -1 h 2 v -1 h 3 v -1 h 2 v -1 h 2 v -1 h 2 v -1 h 2 v -1 h 2 v -1 h 3 v -1 h 2 v -1 h 2 v -1 h 2 v -1 h 2 v -1 h 2 v -1 h 2 v -1 h 2 v -1 h 2 v -1 h 2 v -1 h 2 v -1 h 2 v -1 h 2 v -1 h 2 v -1 h 2 v -1 h 2 v -1 h 2 v -1 h 2 v -1 h 2 v -1 h 2 v -1 h 2 v -1 h 2 v -1 h 2 v -1 h 2 v -1 h 2 v -1 h 2 v -1 h 2 v -1 h 2 v -1 h 2 v -1 h 2 v -1 h 2 v -1 h 2 v -1 h 2 v -1 h 1 v -1 h 2 v -1 h 2 v -1 h 2 v -1 h 2 v -1 h 2 v -1 h 2 v -1 h 2 v -1 h 2 v -1 h 2 v -1 h 1 v -1 h 2 v -1 h 2 v -1 h 2 v -1 h 2 v -1 h 2 v -1 h 1 v -1 h 2 v -1 h 2 v -1 h 2 v -1 h 2 v -1 h 1 v -1 h 2 v -1 h 2 v -1 h 2 v -1 h 2 v -1 h 2 v -1 h 1 v -1 h 2 v -1 h 2 v -1 h 2 v -1 h 2 v -1 h 1 v -1 h 2 v -1 h 2 v -1 h 2 v -1 h 1 v -1 h 2 v -1 h 2 v -1 h 2 v -1 h 1 v -1 h 2 v -1 h 2 v -1 h 2 v -1 h 2 v -1 h 1 v -1 h 2 v -1 h 2 v -1 h 2 v -1 h 1 v -1 h 2 v -1 h 2 v -1 h 2 v -1 h 1 v -1 h 2 v -1 h 2 v -1 h 2 v -1 h 1 v -1 h 2 v -1 h 2 v -1 h 1 v -1 h 2 v -1 h 2 v -1 h 2 v -1 h 1 v -1 h 2 v -1 h 2 v -1 h 2 v -1 h 1 v -1 h 2 v -1 h 2 v -1 h 1 v -1 h 2 v -1 h 2 v -1 h 2 v -1 h 1 v -1 h 2 v -1 h 2 v -1 h 1 v -1 h 2 v -1 h 2 v -1 h 2 v -1 h 1 v -1 h 2 v -1 h 2 v -1 h 1 v -1 h 2 v -1 h 2 v -1 h 2 v -1 h 1 v -1 h 2 v -1 h 2 v -1 h 1 v -1 h 2 v -1 h 2 v -1 h 2 v -1 h 1 v -1 h 2 v -1 h 2 v -1 h 1 v -1 h 2 v -1 h 2 v -1 h 2 v -1 h 1 v -1 h 2 v -1 h 2 v -1 h 1 v -1 h 2 v -1 h 2 v -1 h 2 v -1 h 1 v -1 h 2 v -1 h 2 v -1 h 1 v -1 h 2 v -1 h 2 v -1 h 2 v -1 h 1 v -1 h 2 v -1 h 2 v -1 h 1 v -1 h 2 v -1 h 2 v -1 h 2 v -1 h 1 v -1 h 2 v -1 h 2 v -1 h 2 v -1 h 1 v -1 h 2 v -1 h 2 v -1 h 2 v -1 h 1 v -1 h 2 v -1 h 2 v -1 h 1 v -1 h 2 v -1 h 2 v -1 h 2 v -1 h 2 v -1 h 1 v -1 h 2 v -1 h 2 v -1 h 2 v -1 h 1 v -1 h 2 v -1 h 2 v -1 h 2 v -1 h 1 v -1 h 2 v -1 h 2 v -1 h 2 v -1 h 2 v -1 h 1 v -1 h 2 v -1 h 2 v -1 h 2 v -1 h 1 v -1 h 2 v -1 h 2 v -1 h 2 v -1 h 2 v -1 h 2 v -1 h 1 v -1 h 2 v -1 h 2 v -1 h 2 v -1 h 2 v -1 h 2 v -1 h 1 v -1 h 2 v -1 h 2 v -1 h 2 v -1 h 2 v -1 h 1 v -1 h 2 v -1 h 2 v -1 h 2 v -1 h 2 v -1 h 2 v -1 h 2 v -1 h 2 v -1 h 2 v -1 h 2 v -1 h 1 v -1 h 2 v -1 h 2 v -1 h 2 v -1 h 2 v -1 h 2 v -1 h 2 v -1 h 2 v -1 h 2 v -1 h 2 v -1 h 1 v -1 h 2 v -1 h 2 v -1 h 2 v -1 h 2 v -1 h 2 v -1 h 2 v -1 h 2 v -1 h 3 v -1 h 2 v -1 h 2 v -1 h 2 v -1 h 2 v -1 h 2 v -1 h 2 v -1 h 2 v -1 h 2 v -1 h 2 v -1 h 2 v -1 h 2 v -1 h 2 v -1 h 2 v -1 h 2 v -1 h 2 v -1 h 2 v -1 h 3 v -1 h 2 v -1 h 2 v -1 h 2 v -1 h 2 v -1 h 2 v -1 h 3 v -1 h 2 v -1 h 2 v -1 h 2 v -1 h 2 v -1 h 2 v -1 h 3 v -1 h 2 v -1 h 2 v -1 h 3 v -1 h 2 v -1 h 2 v -1 h 3 v -1 h 2 v -1 h 3 v -1 h 2 v -1 h 2 v -1 h 3 v -1 h 2 v -1 h 2 v -1 h 3 v -1 h 2 v -1 h 3 v -1 h 2 v -1 h 3 v -1 h 2 v -1 h 3 v -1 h 3 v -1 h 2 v -1 h 3 v -1 h 2 v -1 h 3 v -1 h 3 v -1 h 2 v -1 h 3 v -1 h 3 v -1 h 2 v -1 h 3 v -1 h 3 v -1 h 3 v -1 h 3 v -1 h 3 v -1 h 3 v -1 h 3 v -1 h 3 v -1 h 3 v -1 h 3 v -1 h 3 v -1 h 3 v -1 h 3 v -1 h 3 v -1 h 4 v -1 h 3 v -1 h 4 v -1 h 3 v -1 h 4 v -1 h 3 v -1 h 4 v -1 h 4 v -1 h 3 v -1 h 4 v -1 h 3 v -1 h 5 v -1 h 4 v -1 h 4 v -1 h 5 v -1 h 4 v -1 h 5 v -1 h 4 v -1 h 4 v -1 h 5 v -1 h 6 v -1 h 5 v -1 h 6 v -1 h 6 v -1 h 6 v -1 h 5 v -1 h 6 v -1 h 9 v -1 h 9 v -1 h 8 v -1 h 9 v -1 h 11 v -1 h 18 v -1 h 19 v -1 h 37 v 1 h 8 v -5 h -1 v -3 h -1 v -3 h -1 v -2 h -1 v -3 h -1 v -3 h -1 v -3 h -1 v -3 h -1 v -3 h -1 v -3 h -1 v -3 h -1 v -3 h -1 v -2 h -1 v -3 h -1 v -3 h -1 v -3 h -1 v -3 h -1 v -3 h -1 v -3 h -1 v -3 h -1 v -2 h -1 v -3 h -1 v -3 h -1 v -3 h -1 v -3 h -1 v -3 h -1 v -3 h -1 v -3 h -1 v -2 h -1 v -3 h -1 v -3 h -1 v -3 h -1 v -3 h -1 v -3 h -1 v -3 h -1 v -3 h -1 v -2 h -1 v -3 h -1 v -3 h -1 v -3 h -1 v -3 h -1 v -3 h -1 v -3 h -1 v -3 h -1 v -2 h -1 v -3 h -1 v -3 h -1 v -3 h -1 v -3 h -1 v -3 h -1 v -3 h -1 v -3 h -1 v -2 h -1 v -3 h -1 v -3 h -1 v -3 h -1 v -3 h -1 v -3 h -1 v -3 h -1 v -3 h -1 v -2 h -1 v -3 h -1 v -3 h -1 v -3 h -1 v -3 h -1 v -3 h -1 v -3 h -1 v -3 h -1 v -3 h -1 v -2 h -1 v -3 h -1 v -3 h -1 v -3 h -1 v -3 h -1 v -3 h -1 v -3 h -1 v -3 h -1 v -2 h -1 v -3 h -1 v -3 h -1 v -3 h -1 v -3 h -1 v -3 h -1 v -3 h -1 v -3 h -1 v -2 h -1 v -3 h -1 v -3 h -1 v -3 h -1 v -3 h -1 v -3 h -1 v -3 h -1 v -3 h -1 v -2 h -1 v -3 h -1 v -3 h -1 v -3 h -1 v -3 h -1 v -3 h -1 v -3 h -1 v -3 h -1 v -2 h -1 v -3 h -1 v -3 h -1 v -3 h -1 v -3 h -1 v -3 h -1 v -3 h -1 v -3 h -1 v -2 h -1 v -3 h -1 v -3 h -1 v -3 h -1 v -3 h -1 v -3 h -1 v -3 h -1 v -3 h -1 v -2 h -1 v -3 h -1 v -3 h -1 v -3 h -1 v -3 h -1 v -3 h -1 v -3 h -1 v -3 h -1 v -3 h -1 v -2 h -1 v -3 h -1 v -3 h -1 v -3 h -1 v -3 h -1 v -3 h -1 v -3 h -1 v -3 h -1 v -2 h -1 v -3 h -1 v -3 h -1 v -3 h -1 v -3 h -1 v -3 h -1 v -3 h -1 v -3 h -1 v -2 h -1 v -3 h -1 v -3 h -1 v -3 h -1 v -3 h -1 v -3 h -1 v -3 h -1 v -3 h -1 v -2 h -1 v -3 h -1 v -3 h -1 v -3 h -1 v -3 h -1 v -3 h -1 v -3 h -1 v -3 h -1 v -2 h -1 v -3 h -1 v -3 h -1 v -3 h -1 v -3 h -1 v -3 h -1 v -3 h -1 v -3 h -1 v -2 h -1 v -3 h -1 v -3 h -1 v -3 h -1 v -3 h -1 v -3 h -1 v -3 h -1 v -3 h -1 v -2 h -1 v -3 h -1 v -3 h -1 v -3 h -1 v -3 h -1 v -3 h -1 v -3 h -1 v -3 h -1 v -3 h -1 v -2 h -1 v -3 h -1 v -3 h -1 v -3 h -1 v -3 h -1 v -3 h -1 v -3 h -1 v -3 h -1 v -2 h -1 v -3 h -1 v -3 h -1 v -3 h -1 v -3 h -1 v -3 h -1 v -3 h -1 v -3 h -1 v -2 h -1 v -3 h -1 v -3 h -1 v -3 h -1 v -3 h -1 v -3 h -1 v -3 h -1 v -3 h -1 v -2 h -1 v -3 h -1 v -3 h -1 v -3 h -1 v -3 h -1 v -3 h -1 v -3 h -1 v -3 h -1 v -2 h -1 v -3 h -1 v -3 h -1 v -3 h -1 v -3 h -1 v -3 h -1 v -3 h -1 v -3 h -1 v -2 h -1 v -3 h -1 v -3 h -1 v -3 h -1 v -3 h -1 v -3 h -1 v -3 h -1 v -3 h -1 v -2 h -1 v -3 h -1 v -3 h -1 v -3 h -1 v -3 h -1 v -3 h -1 v -3 h -1 v -3 h -1 v -3 h -1 v -2 h -1 v -3 h -1 v -3 h -1 v -3 h -1 v -3 h -1 v -3 h -1 v -3 h -1 v -3 h -1 v -2 h -1 v -3 h -1 v -3 h -1 v -3 h -1 v -3 h -1 v -3 h -1 v -3 h -1 v -3 h -1 v -2 h -1 v -3 h -1 v -3 h -1 v -3 h -1 v -3 h -1 v -3 h -1 v -3 h -1 v -3 h -1 v -2 h -1 v -3 h -1 v -3 h -1 v -3 h -1 v -3 h -1 v -3 h -1 v -3 h -1 v -3 h -1 v -2 h -1 v -3 h -1 v -3 h -1 v -3 h -1 v -3 h -1 v -3 h -1 v -3 h -1 v -3 h -1 v -2 h -1 v -3 h -1 v -3 h -1 v -3 h -1 v -3 h -1 v -3 h -1 v -3 h -1 v -3 h -1 v -2 h -1 v -3 h -1 v -3 h -1 v -3 h -1 v -3 h -1 v -3 h -1 v -3 h -1 v -3 h -1 v -3 h -1 v -2 h -1 v -3 h -1 v -3 h -1 v -3 h -1 v -3 h -1 v -3 h -1 v -3 h -1 v -3 h -1 v -2 h -1 v -3 h -1 v -3 h -1 v -3 h -1 v -3 h -1 v -3 h -1 v -3 h -1 v -3 h -1 v -2 h -1 v -3 h -1 v -3 h -1 v -1 h -10 v -1"
               style="fill:url(#linearGradient176);fill-opacity:1;fill-rule:nonzero;stroke:none"
               id="path178" />
          </g>
        </g>
      </g>
      <g
         id="g180">
        <g
           id="g182"
           clip-path="url(#clipPath186)">
          <path
             d="m 3025.69,369.43 c -472.49,-19.551 -774.02,452.758 -1246.51,433.207 7.84,22.5 15.63,44.98 23.46,67.5 472.5,19.551 774.02,-452.797 1246.5,-433.246 -7.8,-22.481 -15.62,-44.981 -23.45,-67.461"
             style="fill:url(#linearGradient202);fill-opacity:1;fill-rule:nonzero;stroke:none"
             id="path204" />
        </g>
      </g>
      <g
         id="g206">
        <g
           id="g208"
           clip-path="url(#clipPath212)">
          <path
             d="m 3074.54,510 c -472.48,-19.57 -774,452.773 -1246.49,433.223 7.81,22.48 15.63,44.98 23.44,67.457 472.49,19.57 774.01,-452.75 1246.52,-433.2 -7.82,-22.519 -15.64,-44.98 -23.47,-67.48"
             style="fill:url(#linearGradient228);fill-opacity:1;fill-rule:nonzero;stroke:none"
             id="path230" />
        </g>
      </g>
      <g
         id="g232">
        <g
           id="g234"
           clip-path="url(#clipPath238)">
          <path
             d="m 3123.41,650.57 c -472.5,-19.558 -774.02,452.77 -1246.52,433.22 7.83,22.48 15.63,44.98 23.46,67.48 472.48,19.55 774.02,-452.79 1246.51,-433.239 -7.83,-22.461 -15.64,-44.961 -23.45,-67.461"
             style="fill:url(#linearGradient254);fill-opacity:1;fill-rule:nonzero;stroke:none"
             id="path256" />
        </g>
      </g>
      <g
         id="g258">
        <g
           id="g260"
           clip-path="url(#clipPath264)">
          <path
             d="m 3172.27,791.152 c -472.49,-19.55 -774.03,452.778 -1246.52,433.228 7.83,22.5 15.64,44.96 23.45,67.48 472.5,19.53 774.02,-452.797 1246.51,-433.247 -7.82,-22.5 -15.62,-44.961 -23.44,-67.461"
             style="fill:url(#linearGradient280);fill-opacity:1;fill-rule:nonzero;stroke:none"
             id="path282" />
        </g>
      </g>
      <g
         id="g284">
        <g
           id="g286"
           clip-path="url(#clipPath290)">
          <path
             d="m 3221.11,931.719 c -472.48,-19.551 -774.01,452.771 -1246.5,433.221 7.82,22.48 15.63,44.98 23.45,67.48 472.5,19.55 774.03,-452.772 1246.51,-433.221 -7.81,-22.48 -15.62,-44.98 -23.46,-67.48"
             style="fill:url(#linearGradient306);fill-opacity:1;fill-rule:nonzero;stroke:none"
             id="path308" />
        </g>
      </g>
      <g
         id="g310">
        <g
           id="g312"
           clip-path="url(#clipPath316)">
          <path
             d="m 3269.97,1072.29 c -472.49,-19.56 -774,452.77 -1246.51,433.22 7.81,22.5 15.63,44.98 23.46,67.48 472.48,19.55 774.01,-452.78 1246.5,-433.22 -7.81,-22.5 -15.63,-44.98 -23.45,-67.48"
             style="fill:url(#linearGradient332);fill-opacity:1;fill-rule:nonzero;stroke:none"
             id="path334" />
        </g>
      </g>
      <g
         id="g336">
        <g
           id="g338"
           clip-path="url(#clipPath342)">
          <g
             id="g344"
             clip-path="url(#clipPath348)">
            <path
               d="m 3264,1212 v 1 h -19 v 1 h -16 v 1 h -9 v 1 h -8 v 1 h -9 v 1 h -9 v 1 h -7 v 1 h -6 v 1 h -6 v 1 h -5 v 1 h -6 v 1 h -6 v 1 h -6 v 1 h -5 v 1 h -4 v 1 h -5 v 1 h -4 v 1 h -4 v 1 h -5 v 1 h -4 v 1 h -4 v 1 h -5 v 1 h -4 v 1 h -4 v 1 h -3 v 1 h -4 v 1 h -3 v 1 h -4 v 1 h -3 v 1 h -4 v 1 h -3 v 1 h -4 v 1 h -3 v 1 h -4 v 1 h -3 v 1 h -3 v 1 h -3 v 1 h -3 v 1 h -3 v 1 h -3 v 1 h -3 v 1 h -3 v 1 h -3 v 1 h -3 v 1 h -3 v 1 h -3 v 1 h -3 v 1 h -2 v 1 h -3 v 1 h -3 v 1 h -2 v 1 h -3 v 1 h -3 v 1 h -2 v 1 h -3 v 1 h -2 v 1 h -3 v 1 h -3 v 1 h -2 v 1 h -3 v 1 h -3 v 1 h -2 v 1 h -3 v 1 h -2 v 1 h -2 v 1 h -3 v 1 h -2 v 1 h -2 v 1 h -3 v 1 h -2 v 1 h -2 v 1 h -3 v 1 h -2 v 1 h -2 v 1 h -3 v 1 h -2 v 1 h -3 v 1 h -2 v 1 h -2 v 1 h -2 v 1 h -2 v 1 h -3 v 1 h -2 v 1 h -2 v 1 h -2 v 1 h -2 v 1 h -2 v 1 h -3 v 1 h -2 v 1 h -2 v 1 h -2 v 1 h -2 v 1 h -2 v 1 h -2 v 1 h -3 v 1 h -2 v 1 h -2 v 1 h -2 v 1 h -2 v 1 h -2 v 1 h -2 v 1 h -2 v 1 h -2 v 1 h -2 v 1 h -2 v 1 h -2 v 1 h -2 v 1 h -2 v 1 h -2 v 1 h -2 v 1 h -2 v 1 h -2 v 1 h -2 v 1 h -2 v 1 h -2 v 1 h -2 v 1 h -2 v 1 h -2 v 1 h -2 v 1 h -1 v 1 h -2 v 1 h -2 v 1 h -2 v 1 h -2 v 1 h -2 v 1 h -2 v 1 h -2 v 1 h -2 v 1 h -2 v 1 h -1 v 1 h -2 v 1 h -2 v 1 h -2 v 1 h -2 v 1 h -2 v 1 h -2 v 1 h -1 v 1 h -2 v 1 h -2 v 1 h -2 v 1 h -2 v 1 h -2 v 1 h -1 v 1 h -2 v 1 h -2 v 1 h -2 v 1 h -2 v 1 h -2 v 1 h -1 v 1 h -2 v 1 h -2 v 1 h -2 v 1 h -2 v 1 h -1 v 1 h -2 v 1 h -2 v 1 h -2 v 1 h -2 v 1 h -1 v 1 h -2 v 1 h -2 v 1 h -2 v 1 h -1 v 1 h -2 v 1 h -2 v 1 h -2 v 1 h -1 v 1 h -2 v 1 h -2 v 1 h -2 v 1 h -1 v 1 h -2 v 1 h -2 v 1 h -2 v 1 h -2 v 1 h -1 v 1 h -2 v 1 h -2 v 1 h -1 v 1 h -2 v 1 h -2 v 1 h -2 v 1 h -1 v 1 h -2 v 1 h -2 v 1 h -2 v 1 h -1 v 1 h -2 v 1 h -2 v 1 h -1 v 1 h -2 v 1 h -2 v 1 h -2 v 1 h -1 v 1 h -2 v 1 h -2 v 1 h -2 v 1 h -1 v 1 h -2 v 1 h -2 v 1 h -1 v 1 h -2 v 1 h -2 v 1 h -2 v 1 h -1 v 1 h -2 v 1 h -2 v 1 h -1 v 1 h -2 v 1 h -2 v 1 h -2 v 1 h -1 v 1 h -2 v 1 h -2 v 1 h -1 v 1 h -2 v 1 h -2 v 1 h -2 v 1 h -1 v 1 h -2 v 1 h -2 v 1 h -1 v 1 h -2 v 1 h -2 v 1 h -2 v 1 h -1 v 1 h -2 v 1 h -2 v 1 h -1 v 1 h -2 v 1 h -2 v 1 h -1 v 1 h -2 v 1 h -2 v 1 h -2 v 1 h -1 v 1 h -2 v 1 h -2 v 1 h -2 v 1 h -1 v 1 h -2 v 1 h -2 v 1 h -1 v 1 h -2 v 1 h -2 v 1 h -2 v 1 h -1 v 1 h -2 v 1 h -2 v 1 h -2 v 1 h -1 v 1 h -2 v 1 h -2 v 1 h -1 v 1 h -2 v 1 h -2 v 1 h -2 v 1 h -1 v 1 h -2 v 1 h -2 v 1 h -2 v 1 h -1 v 1 h -2 v 1 h -2 v 1 h -2 v 1 h -1 v 1 h -2 v 1 h -2 v 1 h -2 v 1 h -2 v 1 h -1 v 1 h -2 v 1 h -2 v 1 h -2 v 1 h -1 v 1 h -2 v 1 h -2 v 1 h -2 v 1 h -1 v 1 h -2 v 1 h -2 v 1 h -2 v 1 h -2 v 1 h -2 v 1 h -1 v 1 h -2 v 1 h -2 v 1 h -2 v 1 h -2 v 1 h -1 v 1 h -2 v 1 h -2 v 1 h -2 v 1 h -2 v 1 h -2 v 1 h -1 v 1 h -2 v 1 h -2 v 1 h -2 v 1 h -2 v 1 h -2 v 1 h -2 v 1 h -1 v 1 h -2 v 1 h -2 v 1 h -2 v 1 h -2 v 1 h -2 v 1 h -2 v 1 h -2 v 1 h -2 v 1 h -2 v 1 h -2 v 1 h -1 v 1 h -2 v 1 h -2 v 1 h -2 v 1 h -2 v 1 h -2 v 1 h -2 v 1 h -2 v 1 h -2 v 1 h -2 v 1 h -2 v 1 h -2 v 1 h -2 v 1 h -2 v 1 h -2 v 1 h -2 v 1 h -2 v 1 h -2 v 1 h -2 v 1 h -2 v 1 h -2 v 1 h -2 v 1 h -2 v 1 h -2 v 1 h -2 v 1 h -2 v 1 h -3 v 1 h -2 v 1 h -2 v 1 h -2 v 1 h -2 v 1 h -2 v 1 h -3 v 1 h -2 v 1 h -2 v 1 h -2 v 1 h -2 v 1 h -2 v 1 h -3 v 1 h -2 v 1 h -2 v 1 h -2 v 1 h -2 v 1 h -3 v 1 h -2 v 1 h -2 v 1 h -3 v 1 h -2 v 1 h -3 v 1 h -2 v 1 h -2 v 1 h -3 v 1 h -2 v 1 h -2 v 1 h -3 v 1 h -2 v 1 h -2 v 1 h -3 v 1 h -2 v 1 h -3 v 1 h -3 v 1 h -2 v 1 h -3 v 1 h -3 v 1 h -2 v 1 h -3 v 1 h -2 v 1 h -3 v 1 h -3 v 1 h -2 v 1 h -3 v 1 h -2 v 1 h -3 v 1 h -3 v 1 h -3 v 1 h -3 v 1 h -3 v 1 h -3 v 1 h -3 v 1 h -3 v 1 h -3 v 1 h -3 v 1 h -3 v 1 h -3 v 1 h -3 v 1 h -3 v 1 h -4 v 1 h -3 v 1 h -4 v 1 h -3 v 1 h -4 v 1 h -3 v 1 h -4 v 1 h -3 v 1 h -4 v 1 h -3 v 1 h -4 v 1 h -4 v 1 h -5 v 1 h -4 v 1 h -4 v 1 h -5 v 1 h -4 v 1 h -4 v 1 h -5 v 1 h -4 v 1 h -5 v 1 h -6 v 1 h -6 v 1 h -6 v 1 h -5 v 1 h -6 v 1 h -6 v 1 h -7 v 1 h -9 v 1 h -9 v 1 h -9 v 1 h -8 v 1 h -17 v 1 h -19 v 1 h -53 v 3 h 1 v 2 h 1 v 3 h 1 v 3 h 1 v 3 h 1 v 3 h 1 v 3 h 1 v 3 h 1 v 3 h 1 v 2 h 1 v 3 h 1 v 3 h 1 v 3 h 1 v 3 h 1 v 3 h 1 v 3 h 1 v 3 h 1 v 2 h 1 v 3 h 1 v 3 h 1 v 3 h 1 v 3 h 1 v 3 h 1 v 2 h 11 v 1 h 6 v -1 h 46 v -1 h 19 v -1 h 12 v -1 h 9 v -1 h 9 v -1 h 8 v -1 h 9 v -1 h 6 v -1 h 6 v -1 h 6 v -1 h 5 v -1 h 6 v -1 h 6 v -1 h 6 v -1 h 4 v -1 h 5 v -1 h 4 v -1 h 4 v -1 h 5 v -1 h 4 v -1 h 4 v -1 h 5 v -1 h 4 v -1 h 4 v -1 h 4 v -1 h 3 v -1 h 4 v -1 h 3 v -1 h 4 v -1 h 3 v -1 h 4 v -1 h 3 v -1 h 4 v -1 h 3 v -1 h 4 v -1 h 3 v -1 h 3 v -1 h 3 v -1 h 3 v -1 h 3 v -1 h 3 v -1 h 3 v -1 h 3 v -1 h 3 v -1 h 3 v -1 h 3 v -1 h 3 v -1 h 3 v -1 h 2 v -1 h 3 v -1 h 2 v -1 h 3 v -1 h 3 v -1 h 2 v -1 h 3 v -1 h 3 v -1 h 2 v -1 h 3 v -1 h 2 v -1 h 3 v -1 h 3 v -1 h 2 v -1 h 3 v -1 h 2 v -1 h 2 v -1 h 3 v -1 h 2 v -1 h 3 v -1 h 2 v -1 h 2 v -1 h 3 v -1 h 2 v -1 h 2 v -1 h 3 v -1 h 2 v -1 h 2 v -1 h 3 v -1 h 2 v -1 h 2 v -1 h 3 v -1 h 2 v -1 h 2 v -1 h 2 v -1 h 2 v -1 h 2 v -1 h 3 v -1 h 2 v -1 h 2 v -1 h 2 v -1 h 2 v -1 h 2 v -1 h 3 v -1 h 2 v -1 h 2 v -1 h 2 v -1 h 2 v -1 h 2 v -1 h 2 v -1 h 2 v -1 h 2 v -1 h 2 v -1 h 2 v -1 h 2 v -1 h 2 v -1 h 2 v -1 h 2 v -1 h 2 v -1 h 2 v -1 h 2 v -1 h 2 v -1 h 2 v -1 h 2 v -1 h 2 v -1 h 2 v -1 h 2 v -1 h 2 v -1 h 2 v -1 h 2 v -1 h 2 v -1 h 2 v -1 h 2 v -1 h 2 v -1 h 2 v -1 h 2 v -1 h 1 v -1 h 2 v -1 h 2 v -1 h 2 v -1 h 2 v -1 h 2 v -1 h 2 v -1 h 2 v -1 h 2 v -1 h 2 v -1 h 1 v -1 h 2 v -1 h 2 v -1 h 2 v -1 h 2 v -1 h 2 v -1 h 1 v -1 h 2 v -1 h 2 v -1 h 2 v -1 h 2 v -1 h 1 v -1 h 2 v -1 h 2 v -1 h 2 v -1 h 2 v -1 h 2 v -1 h 1 v -1 h 2 v -1 h 2 v -1 h 2 v -1 h 2 v -1 h 1 v -1 h 2 v -1 h 2 v -1 h 2 v -1 h 1 v -1 h 2 v -1 h 2 v -1 h 2 v -1 h 1 v -1 h 2 v -1 h 2 v -1 h 2 v -1 h 2 v -1 h 1 v -1 h 2 v -1 h 2 v -1 h 2 v -1 h 1 v -1 h 2 v -1 h 2 v -1 h 2 v -1 h 1 v -1 h 2 v -1 h 2 v -1 h 2 v -1 h 1 v -1 h 2 v -1 h 2 v -1 h 1 v -1 h 2 v -1 h 2 v -1 h 2 v -1 h 1 v -1 h 2 v -1 h 2 v -1 h 2 v -1 h 1 v -1 h 2 v -1 h 2 v -1 h 1 v -1 h 2 v -1 h 2 v -1 h 2 v -1 h 1 v -1 h 2 v -1 h 2 v -1 h 1 v -1 h 2 v -1 h 2 v -1 h 2 v -1 h 1 v -1 h 2 v -1 h 2 v -1 h 1 v -1 h 2 v -1 h 2 v -1 h 2 v -1 h 1 v -1 h 2 v -1 h 2 v -1 h 1 v -1 h 2 v -1 h 2 v -1 h 2 v -1 h 1 v -1 h 2 v -1 h 2 v -1 h 1 v -1 h 2 v -1 h 2 v -1 h 2 v -1 h 1 v -1 h 2 v -1 h 2 v -1 h 1 v -1 h 2 v -1 h 2 v -1 h 2 v -1 h 1 v -1 h 2 v -1 h 2 v -1 h 1 v -1 h 2 v -1 h 2 v -1 h 2 v -1 h 1 v -1 h 2 v -1 h 2 v -1 h 1 v -1 h 2 v -1 h 2 v -1 h 2 v -1 h 1 v -1 h 2 v -1 h 2 v -1 h 2 v -1 h 1 v -1 h 2 v -1 h 2 v -1 h 2 v -1 h 1 v -1 h 2 v -1 h 2 v -1 h 1 v -1 h 2 v -1 h 2 v -1 h 2 v -1 h 2 v -1 h 1 v -1 h 2 v -1 h 2 v -1 h 2 v -1 h 1 v -1 h 2 v -1 h 2 v -1 h 2 v -1 h 1 v -1 h 2 v -1 h 2 v -1 h 2 v -1 h 2 v -1 h 1 v -1 h 2 v -1 h 2 v -1 h 2 v -1 h 1 v -1 h 2 v -1 h 2 v -1 h 2 v -1 h 2 v -1 h 2 v -1 h 1 v -1 h 2 v -1 h 2 v -1 h 2 v -1 h 2 v -1 h 2 v -1 h 1 v -1 h 2 v -1 h 2 v -1 h 2 v -1 h 2 v -1 h 1 v -1 h 2 v -1 h 2 v -1 h 2 v -1 h 2 v -1 h 2 v -1 h 2 v -1 h 2 v -1 h 2 v -1 h 2 v -1 h 1 v -1 h 2 v -1 h 2 v -1 h 2 v -1 h 2 v -1 h 2 v -1 h 2 v -1 h 2 v -1 h 2 v -1 h 2 v -1 h 1 v -1 h 2 v -1 h 2 v -1 h 2 v -1 h 2 v -1 h 2 v -1 h 2 v -1 h 2 v -1 h 3 v -1 h 2 v -1 h 2 v -1 h 2 v -1 h 2 v -1 h 2 v -1 h 2 v -1 h 2 v -1 h 2 v -1 h 2 v -1 h 2 v -1 h 2 v -1 h 2 v -1 h 2 v -1 h 2 v -1 h 2 v -1 h 2 v -1 h 3 v -1 h 2 v -1 h 2 v -1 h 2 v -1 h 2 v -1 h 2 v -1 h 3 v -1 h 2 v -1 h 2 v -1 h 2 v -1 h 2 v -1 h 2 v -1 h 3 v -1 h 2 v -1 h 2 v -1 h 3 v -1 h 2 v -1 h 2 v -1 h 3 v -1 h 2 v -1 h 3 v -1 h 2 v -1 h 2 v -1 h 3 v -1 h 2 v -1 h 2 v -1 h 3 v -1 h 2 v -1 h 3 v -1 h 2 v -1 h 3 v -1 h 2 v -1 h 3 v -1 h 3 v -1 h 2 v -1 h 3 v -1 h 2 v -1 h 3 v -1 h 3 v -1 h 2 v -1 h 3 v -1 h 3 v -1 h 2 v -1 h 3 v -1 h 3 v -1 h 3 v -1 h 3 v -1 h 3 v -1 h 3 v -1 h 3 v -1 h 3 v -1 h 3 v -1 h 3 v -1 h 3 v -1 h 3 v -1 h 3 v -1 h 3 v -1 h 4 v -1 h 3 v -1 h 4 v -1 h 3 v -1 h 4 v -1 h 3 v -1 h 4 v -1 h 4 v -1 h 3 v -1 h 4 v -1 h 3 v -1 h 5 v -1 h 4 v -1 h 4 v -1 h 5 v -1 h 4 v -1 h 5 v -1 h 4 v -1 h 4 v -1 h 5 v -1 h 6 v -1 h 5 v -1 h 6 v -1 h 6 v -1 h 6 v -1 h 5 v -1 h 6 v -1 h 9 v -1 h 9 v -1 h 8 v -1 h 9 v -1 h 11 v -1 h 18 v -1 h 19 v -1 h 37 v 1 h 8 v -5 h -1 v -3 h -1 v -3 h -1 v -2 h -1 v -3 h -1 v -3 h -1 v -3 h -1 v -3 h -1 v -3 h -1 v -3 h -1 v -3 h -1 v -3 h -1 v -2 h -1 v -3 h -1 v -3 h -1 v -3 h -1 v -3 h -1 v -3 h -1 v -3 h -1 v -3 h -1 v -2 h -1 v -3 h -1 v -3 h -1 v -1"
               style="fill:url(#linearGradient364);fill-opacity:1;fill-rule:nonzero;stroke:none"
               id="path366" />
          </g>
        </g>
      </g>
      <path
         d="m 2612.83,970.625 c -215.34,123.985 -424.88,264.605 -687.08,253.755 56.68,163.04 113.34,326.11 170.02,489.17 262.2,10.86 471.73,-129.76 687.06,-253.75 -56.66,-163.06 -113.34,-326.11 -170,-489.175"
         style="fill:#26285f;fill-opacity:1;fill-rule:nonzero;stroke:none"
         id="path368" />
      <path
         d="m 2170.68,1600.9 c -6.28,-1.97 -12.56,-3.99 -18.86,-6.08 2.97,5.43 5.9,10.88 8.88,16.33 -2.99,4.38 -6,8.69 -9.02,13.01 6.33,0.29 12.66,0.51 18.95,0.64 4.42,4.75 8.86,9.5 13.28,14.22 0.94,-5.37 1.85,-10.76 2.77,-16.13 5.69,-1.6 11.35,-3.3 16.97,-5.02 -5.65,-3.26 -11.3,-6.54 -16.97,-9.88 -0.91,-5.69 -1.81,-11.37 -2.74,-17.05 -4.41,3.36 -8.81,6.7 -13.26,9.96"
         style="fill:#ffffff;fill-opacity:1;fill-rule:nonzero;stroke:none"
         id="path370" />
      <path
         d="m 2298.15,1574.06 c -5.99,-1.11 -11.97,-2.26 -17.97,-3.47 2.9,5.27 5.82,10.56 8.71,15.82 -2.76,5.09 -5.52,10.15 -8.29,15.17 5.99,-0.7 11.97,-1.48 17.93,-2.3 4.29,4.31 8.59,8.61 12.87,12.91 0.76,-5.78 1.54,-11.58 2.29,-17.42 5.36,-2.52 10.69,-5.14 16.03,-7.78 -5.43,-2.58 -10.84,-5.21 -16.28,-7.87 -0.98,-5.86 -1.95,-11.7 -2.91,-17.54 -4.11,4.2 -8.24,8.36 -12.38,12.48"
         style="fill:#ffffff;fill-opacity:1;fill-rule:nonzero;stroke:none"
         id="path372" />
      <path
         d="m 2419.29,1529.1 c -5.75,-0.49 -11.52,-0.99 -17.28,-1.56 2.85,5.16 5.7,10.31 8.57,15.47 -2.57,5.58 -5.15,11.17 -7.7,16.74 5.71,-1.45 11.43,-2.93 17.12,-4.5 4.2,4.01 8.36,8.01 12.53,11.98 0.67,-6.12 1.34,-12.23 2,-18.34 5.12,-3.25 10.23,-6.49 15.3,-9.79 -5.23,-2.11 -10.51,-4.3 -15.76,-6.44 -1.01,-5.94 -2,-11.94 -3.02,-17.89 -3.9,4.8 -7.83,9.59 -11.76,14.33"
         style="fill:#ffffff;fill-opacity:1;fill-rule:nonzero;stroke:none"
         id="path374" />
      <path
         d="m 2536.09,1471.54 c -5.63,-0.08 -11.23,-0.17 -16.86,-0.33 2.82,5.1 5.65,10.14 8.48,15.22 -2.44,5.95 -4.91,11.89 -7.35,17.81 5.57,-1.95 11.1,-3.93 16.65,-5.92 4.1,3.79 8.22,7.56 12.32,11.37 0.59,-6.33 1.2,-12.64 1.77,-18.97 4.98,-3.63 9.93,-7.32 14.89,-11.01 -5.16,-1.84 -10.3,-3.69 -15.46,-5.55 -1.04,-6.03 -2.06,-12.07 -3.11,-18.11 -3.78,5.16 -7.57,10.34 -11.33,15.49"
         style="fill:#ffffff;fill-opacity:1;fill-rule:nonzero;stroke:none"
         id="path376" />
      <path
         d="m 2650.41,1406.93 c -5.57,0.08 -11.1,0.18 -16.65,0.24 2.8,5.04 5.62,10.06 8.43,15.1 -2.38,6.11 -4.78,12.22 -7.17,18.32 5.47,-2.19 10.94,-4.4 16.41,-6.61 4.06,3.7 8.15,7.39 12.22,11.08 0.58,-6.41 1.14,-12.79 1.72,-19.18 4.89,-3.85 9.8,-7.7 14.68,-11.5 -5.11,-1.76 -10.24,-3.48 -15.35,-5.22 -1.04,-6.07 -2.07,-12.13 -3.13,-18.18 -3.7,5.31 -7.44,10.64 -11.16,15.95"
         style="fill:#ffffff;fill-opacity:1;fill-rule:nonzero;stroke:none"
         id="path378" />
      <path
         d="m 2135.69,1500.23 c -6.27,-1.97 -12.56,-3.98 -18.85,-6.05 2.95,5.43 5.91,10.86 8.86,16.31 -2.99,4.35 -5.99,8.71 -9.02,12.99 6.35,0.29 12.67,0.5 18.95,0.66 4.44,4.77 8.86,9.47 13.3,14.22 0.95,-5.39 1.85,-10.76 2.78,-16.15 5.66,-1.6 11.32,-3.28 16.94,-5.02 -5.64,-3.26 -11.29,-6.55 -16.95,-9.85 -0.91,-5.7 -1.82,-11.38 -2.74,-17.09 -4.42,3.4 -8.82,6.72 -13.27,9.98"
         style="fill:#ffffff;fill-opacity:1;fill-rule:nonzero;stroke:none"
         id="path380" />
      <path
         d="m 2263.14,1473.4 c -5.96,-1.11 -11.95,-2.29 -17.94,-3.48 2.9,5.29 5.8,10.55 8.71,15.82 -2.78,5.08 -5.51,10.12 -8.28,15.14 5.99,-0.7 11.95,-1.47 17.91,-2.27 4.3,4.32 8.57,8.62 12.87,12.91 0.76,-5.8 1.54,-11.6 2.3,-17.42 5.36,-2.54 10.69,-5.14 16.01,-7.77 -5.42,-2.6 -10.83,-5.24 -16.27,-7.87 -0.98,-5.84 -1.95,-11.7 -2.89,-17.54 -4.13,4.2 -8.27,8.36 -12.42,12.48"
         style="fill:#ffffff;fill-opacity:1;fill-rule:nonzero;stroke:none"
         id="path382" />
      <path
         d="m 2384.29,1428.44 c -5.73,-0.49 -11.49,-1 -17.28,-1.56 2.85,5.13 5.72,10.31 8.57,15.44 -2.55,5.61 -5.12,11.2 -7.71,16.74 5.72,-1.42 11.46,-2.95 17.16,-4.47 4.19,3.98 8.35,7.99 12.52,11.97 0.67,-6.11 1.33,-12.22 2,-18.36 5.13,-3.22 10.21,-6.48 15.3,-9.78 -5.25,-2.11 -10.49,-4.26 -15.78,-6.43 -1,-5.95 -2,-11.91 -3,-17.87 -3.9,4.81 -7.85,9.57 -11.78,14.32"
         style="fill:#ffffff;fill-opacity:1;fill-rule:nonzero;stroke:none"
         id="path384" />
      <path
         d="m 2501.08,1370.9 c -5.6,-0.1 -11.21,-0.2 -16.84,-0.31 2.84,5.05 5.66,10.11 8.47,15.19 -2.43,5.94 -4.9,11.86 -7.33,17.77 5.54,-1.93 11.1,-3.9 16.64,-5.91 4.11,3.81 8.22,7.57 12.33,11.36 0.59,-6.3 1.18,-12.63 1.78,-18.94 4.95,-3.65 9.92,-7.35 14.88,-11.04 -5.16,-1.81 -10.32,-3.67 -15.48,-5.52 -1.02,-6.04 -2.06,-12.05 -3.09,-18.09 -3.78,5.18 -7.56,10.31 -11.36,15.49"
         style="fill:#ffffff;fill-opacity:1;fill-rule:nonzero;stroke:none"
         id="path386" />
      <path
         d="m 2615.42,1306.25 c -5.56,0.12 -11.09,0.2 -16.65,0.27 2.81,5.04 5.63,10.04 8.43,15.1 -2.39,6.09 -4.79,12.19 -7.17,18.3 5.47,-2.21 10.94,-4.39 16.42,-6.62 4.07,3.69 8.14,7.4 12.21,11.08 0.58,-6.39 1.14,-12.78 1.72,-19.18 4.89,-3.85 9.8,-7.68 14.68,-11.53 -5.11,-1.72 -10.23,-3.44 -15.34,-5.17 -1.06,-6.06 -2.07,-12.13 -3.14,-18.19 -3.71,5.32 -7.43,10.65 -11.16,15.94"
         style="fill:#ffffff;fill-opacity:1;fill-rule:nonzero;stroke:none"
         id="path388" />
      <path
         d="m 2100.72,1399.57 c -6.3,-1.97 -12.56,-3.98 -18.87,-6.07 2.94,5.43 5.9,10.89 8.87,16.3 -2.99,4.38 -6,8.72 -9.01,13.01 6.33,0.32 12.65,0.55 18.94,0.69 4.44,4.74 8.87,9.49 13.3,14.2 0.93,-5.38 1.86,-10.75 2.77,-16.16 5.68,-1.58 11.33,-3.28 16.94,-5.02 -5.62,-3.24 -11.28,-6.54 -16.95,-9.88 -0.91,-5.68 -1.83,-11.35 -2.75,-17.05 -4.39,3.4 -8.81,6.72 -13.24,9.98"
         style="fill:#ffffff;fill-opacity:1;fill-rule:nonzero;stroke:none"
         id="path390" />
      <path
         d="m 2228.16,1372.75 c -5.97,-1.11 -11.95,-2.28 -17.95,-3.49 2.9,5.27 5.81,10.54 8.7,15.8 -2.76,5.08 -5.52,10.15 -8.28,15.17 6,-0.7 11.97,-1.46 17.92,-2.28 4.3,4.32 8.59,8.61 12.87,12.91 0.76,-5.78 1.53,-11.6 2.31,-17.4 5.36,-2.54 10.69,-5.18 16.02,-7.82 -5.42,-2.59 -10.85,-5.19 -16.28,-7.87 -0.98,-5.84 -1.95,-11.68 -2.92,-17.52 -4.1,4.2 -8.25,8.36 -12.39,12.5"
         style="fill:#ffffff;fill-opacity:1;fill-rule:nonzero;stroke:none"
         id="path392" />
      <path
         d="m 2349.32,1327.79 c -5.76,-0.5 -11.51,-1.03 -17.28,-1.58 2.84,5.16 5.7,10.29 8.56,15.45 -2.56,5.61 -5.15,11.19 -7.71,16.74 5.74,-1.43 11.44,-2.93 17.15,-4.47 4.18,4 8.36,8 12.53,11.97 0.66,-6.1 1.34,-12.23 1.99,-18.36 5.13,-3.22 10.22,-6.47 15.32,-9.81 -5.26,-2.09 -10.5,-4.25 -15.79,-6.4 -0.99,-5.96 -1.99,-11.94 -3.01,-17.89 -3.91,4.8 -7.84,9.59 -11.76,14.35"
         style="fill:#ffffff;fill-opacity:1;fill-rule:nonzero;stroke:none"
         id="path394" />
      <path
         d="m 2466.11,1270.21 c -5.63,-0.07 -11.24,-0.19 -16.86,-0.31 2.83,5.06 5.66,10.12 8.48,15.2 -2.44,5.95 -4.9,11.89 -7.34,17.81 5.56,-1.95 11.09,-3.93 16.65,-5.92 4.09,3.79 8.21,7.54 12.31,11.33 0.59,-6.29 1.2,-12.6 1.79,-18.93 4.97,-3.65 9.92,-7.32 14.89,-11.01 -5.18,-1.84 -10.31,-3.69 -15.48,-5.55 -1.05,-6.03 -2.06,-12.07 -3.1,-18.1 -3.78,5.17 -7.54,10.33 -11.34,15.48"
         style="fill:#ffffff;fill-opacity:1;fill-rule:nonzero;stroke:none"
         id="path396" />
      <path
         d="m 2580.43,1205.63 c -5.56,0.07 -11.09,0.15 -16.65,0.23 2.81,5.02 5.63,10.04 8.45,15.08 -2.4,6.11 -4.79,12.22 -7.19,18.32 5.48,-2.19 10.95,-4.38 16.42,-6.6 4.06,3.69 8.16,7.38 12.22,11.05 0.58,-6.39 1.12,-12.77 1.71,-19.16 4.9,-3.87 9.8,-7.69 14.7,-11.54 -5.12,-1.72 -10.24,-3.46 -15.36,-5.18 -1.04,-6.07 -2.07,-12.13 -3.13,-18.2 -3.7,5.35 -7.45,10.66 -11.17,16"
         style="fill:#ffffff;fill-opacity:1;fill-rule:nonzero;stroke:none"
         id="path398" />
      <path
         d="m 2065.71,1298.91 c -6.26,-1.98 -12.56,-4.01 -18.84,-6.08 2.94,5.43 5.9,10.86 8.86,16.31 -3,4.38 -6,8.71 -9.01,12.99 6.34,0.31 12.66,0.53 18.93,0.7 4.45,4.73 8.87,9.47 13.31,14.2 0.93,-5.37 1.85,-10.76 2.77,-16.15 5.67,-1.6 11.34,-3.3 16.95,-5.02 -5.63,-3.26 -11.29,-6.56 -16.96,-9.86 -0.89,-5.69 -1.82,-11.37 -2.74,-17.07 -4.41,3.39 -8.81,6.7 -13.27,9.98"
         style="fill:#ffffff;fill-opacity:1;fill-rule:nonzero;stroke:none"
         id="path400" />
      <path
         d="m 2193.18,1272.09 c -5.97,-1.13 -11.95,-2.29 -17.97,-3.5 2.9,5.28 5.83,10.55 8.72,15.8 -2.75,5.1 -5.51,10.14 -8.29,15.16 6.01,-0.7 11.98,-1.44 17.92,-2.26 4.29,4.31 8.6,8.61 12.88,12.92 0.76,-5.82 1.53,-11.62 2.3,-17.44 5.36,-2.54 10.69,-5.13 16.01,-7.79 -5.42,-2.6 -10.83,-5.21 -16.28,-7.85 -0.97,-5.84 -1.94,-11.7 -2.89,-17.54 -4.12,4.2 -8.26,8.36 -12.4,12.5"
         style="fill:#ffffff;fill-opacity:1;fill-rule:nonzero;stroke:none"
         id="path402" />
      <path
         d="m 2314.34,1227.13 c -5.76,-0.51 -11.52,-1.02 -17.3,-1.58 2.86,5.15 5.71,10.31 8.57,15.45 -2.56,5.6 -5.12,11.17 -7.7,16.73 5.73,-1.42 11.45,-2.94 17.14,-4.47 4.19,3.99 8.36,7.99 12.53,11.97 0.68,-6.11 1.34,-12.22 2,-18.34 5.12,-3.24 10.21,-6.5 15.3,-9.8 -5.25,-2.13 -10.5,-4.28 -15.78,-6.45 -0.99,-5.93 -1.99,-11.91 -3.02,-17.87 -3.88,4.81 -7.82,9.57 -11.74,14.36"
         style="fill:#ffffff;fill-opacity:1;fill-rule:nonzero;stroke:none"
         id="path404" />
      <path
         d="m 2431.13,1169.55 c -5.62,-0.1 -11.24,-0.19 -16.86,-0.31 2.83,5.08 5.64,10.12 8.48,15.19 -2.45,5.94 -4.91,11.88 -7.36,17.82 5.57,-1.98 11.11,-3.93 16.68,-5.94 4.08,3.81 8.19,7.58 12.3,11.37 0.58,-6.33 1.21,-12.62 1.78,-18.95 4.96,-3.65 9.92,-7.34 14.89,-11.03 -5.17,-1.84 -10.33,-3.68 -15.46,-5.53 -1.06,-6.04 -2.07,-12.07 -3.1,-18.11 -3.8,5.18 -7.57,10.35 -11.35,15.49"
         style="fill:#ffffff;fill-opacity:1;fill-rule:nonzero;stroke:none"
         id="path406" />
      <path
         d="m 2545.46,1104.94 c -5.57,0.1 -11.1,0.18 -16.66,0.26 2.8,5.03 5.62,10.03 8.44,15.09 -2.41,6.08 -4.8,12.19 -7.18,18.3 5.47,-2.2 10.94,-4.39 16.42,-6.6 4.06,3.69 8.14,7.39 12.23,11.08 0.56,-6.41 1.12,-12.8 1.7,-19.2 4.89,-3.83 9.8,-7.68 14.68,-11.53 -5.11,-1.71 -10.24,-3.45 -15.35,-5.19 -1.03,-6.06 -2.07,-12.11 -3.12,-18.17 -3.73,5.32 -7.45,10.65 -11.16,15.96"
         style="fill:#ffffff;fill-opacity:1;fill-rule:nonzero;stroke:none"
         id="path408" />
      <path
         d="m 2121.67,1656.72 c -6.43,-2.48 -12.89,-5.02 -19.38,-7.66 2.98,5.57 5.98,11.12 8.97,16.64 -3.15,3.97 -6.32,7.85 -9.47,11.72 6.55,0.9 13.06,1.7 19.58,2.44 4.52,5 9.04,10 13.55,14.98 1.02,-5.11 2.01,-10.25 3.03,-15.39 5.89,-1.05 11.76,-2.16 17.57,-3.36 -5.78,-3.65 -11.59,-7.34 -17.41,-11.05 -0.87,-5.61 -1.76,-11.19 -2.64,-16.8 -4.57,2.89 -9.18,5.72 -13.8,8.48"
         style="fill:#ffffff;fill-opacity:1;fill-rule:nonzero;stroke:none"
         id="path410" />
      <path
         d="m 2376.54,1602.87 c -5.86,-0.78 -11.7,-1.6 -17.58,-2.44 2.89,5.21 5.74,10.43 8.61,15.61 -2.65,5.39 -5.29,10.7 -7.97,16.03 5.85,-1.11 11.68,-2.3 17.51,-3.5 4.23,4.14 8.45,8.29 12.68,12.41 0.72,-5.98 1.42,-11.94 2.13,-17.93 5.23,-2.91 10.42,-5.86 15.63,-8.89 -5.32,-2.3 -10.66,-4.67 -15.99,-7.07 -0.99,-5.9 -1.98,-11.82 -2.98,-17.71 -4,4.51 -8.01,9.02 -12.04,13.49"
         style="fill:#ffffff;fill-opacity:1;fill-rule:nonzero;stroke:none"
         id="path412" />
      <path
         d="m 2494.99,1550.12 c -5.68,-0.28 -11.35,-0.55 -17.03,-0.86 2.84,5.1 5.66,10.21 8.5,15.31 -2.49,5.78 -5,11.58 -7.51,17.34 5.65,-1.71 11.26,-3.49 16.86,-5.29 4.15,3.87 8.3,7.74 12.42,11.6 0.62,-6.21 1.25,-12.46 1.88,-18.67 5.04,-3.48 10.05,-6.97 15.08,-10.51 -5.22,-1.95 -10.41,-3.94 -15.61,-5.91 -1.03,-5.98 -2.04,-12.02 -3.06,-18.01 -3.85,5.02 -7.69,10.02 -11.53,15"
         style="fill:#ffffff;fill-opacity:1;fill-rule:nonzero;stroke:none"
         id="path414" />
      <path
         d="m 2610.02,1487.56 c -5.56,0.02 -11.13,0.04 -16.71,0.04 2.8,5.06 5.63,10.1 8.45,15.13 -2.41,6.06 -4.84,12.09 -7.25,18.11 5.52,-2.09 11.01,-4.22 16.52,-6.35 4.08,3.73 8.16,7.46 12.24,11.17 0.57,-6.36 1.15,-12.71 1.73,-19.1 4.93,-3.77 9.85,-7.58 14.78,-11.38 -5.13,-1.76 -10.26,-3.52 -15.4,-5.28 -1.03,-6.05 -2.07,-12.11 -3.1,-18.18 -3.75,5.29 -7.5,10.58 -11.26,15.84"
         style="fill:#ffffff;fill-opacity:1;fill-rule:nonzero;stroke:none"
         id="path416" />
      <path
         d="m 2723.58,1420.7 c -5.55,0.1 -11.09,0.2 -16.63,0.28 2.81,5.04 5.61,10.06 8.4,15.07 -2.36,6.12 -4.77,12.25 -7.15,18.38 5.46,-2.24 10.94,-4.45 16.41,-6.7 4.07,3.72 8.13,7.41 12.22,11.1 0.57,-6.41 1.12,-12.79 1.7,-19.2 4.92,-3.85 9.83,-7.68 14.72,-11.47 -5.11,-1.75 -10.23,-3.49 -15.36,-5.23 -1.03,-6.05 -2.07,-12.13 -3.11,-18.18 -3.74,5.33 -7.47,10.64 -11.2,15.95"
         style="fill:#ffffff;fill-opacity:1;fill-rule:nonzero;stroke:none"
         id="path418" />
      <path
         d="m 2086.84,1556.45 c -6.46,-2.47 -12.91,-5.02 -19.39,-7.64 2.99,5.55 5.97,11.09 8.97,16.62 -3.15,3.96 -6.31,7.85 -9.48,11.72 6.55,0.92 13.08,1.72 19.56,2.44 4.54,5 9.06,9.98 13.56,14.96 1.03,-5.12 2.05,-10.23 3.04,-15.37 5.88,-1.04 11.73,-2.17 17.57,-3.36 -5.8,-3.65 -11.59,-7.32 -17.42,-11.05 -0.86,-5.59 -1.75,-11.2 -2.62,-16.78 -4.59,2.87 -9.17,5.72 -13.79,8.46"
         style="fill:#ffffff;fill-opacity:1;fill-rule:nonzero;stroke:none"
         id="path420" />
      <path
         d="m 2252.72,1640.23 c -6.1,-1.52 -12.22,-3.06 -18.35,-4.68 2.92,5.37 5.84,10.7 8.76,16.05 -2.86,4.75 -5.75,9.45 -8.62,14.14 6.15,-0.21 12.3,-0.51 18.4,-0.9 4.37,4.52 8.71,9.03 13.07,13.5 0.84,-5.57 1.69,-11.19 2.55,-16.82 5.48,-2.09 10.97,-4.25 16.44,-6.46 -5.52,-2.91 -11.06,-5.86 -16.61,-8.83 -0.95,-5.76 -1.89,-11.52 -2.82,-17.3 -4.26,3.82 -8.53,7.59 -12.82,11.3"
         style="fill:#ffffff;fill-opacity:1;fill-rule:nonzero;stroke:none"
         id="path422" />
      <path
         d="m 2217.88,1539.98 c -6.11,-1.52 -12.23,-3.09 -18.38,-4.71 2.94,5.36 5.86,10.69 8.78,16.06 -2.85,4.74 -5.74,9.45 -8.63,14.12 6.18,-0.22 12.31,-0.51 18.43,-0.88 4.34,4.53 8.7,9 13.05,13.52 0.85,-5.61 1.68,-11.21 2.54,-16.82 5.5,-2.11 10.99,-4.28 16.45,-6.5 -5.52,-2.89 -11.07,-5.84 -16.59,-8.81 -0.96,-5.76 -1.91,-11.53 -2.85,-17.31 -4.25,3.83 -8.51,7.6 -12.8,11.33"
         style="fill:#ffffff;fill-opacity:1;fill-rule:nonzero;stroke:none"
         id="path424" />
      <path
         d="m 2341.69,1502.58 c -5.84,-0.78 -11.7,-1.58 -17.58,-2.42 2.88,5.21 5.74,10.41 8.61,15.6 -2.65,5.37 -5.3,10.72 -7.98,16.02 5.87,-1.12 11.68,-2.27 17.52,-3.48 4.22,4.16 8.44,8.26 12.67,12.4 0.71,-5.97 1.42,-11.95 2.14,-17.93 5.23,-2.91 10.42,-5.86 15.64,-8.86 -5.35,-2.35 -10.67,-4.71 -16.02,-7.09 -0.98,-5.92 -1.96,-11.82 -2.96,-17.72 -3.99,4.53 -8.03,9.03 -12.04,13.48"
         style="fill:#ffffff;fill-opacity:1;fill-rule:nonzero;stroke:none"
         id="path426" />
      <path
         d="m 2460.14,1449.86 c -5.67,-0.27 -11.34,-0.54 -17.03,-0.86 2.84,5.1 5.66,10.2 8.51,15.3 -2.51,5.8 -5.01,11.58 -7.51,17.34 5.62,-1.72 11.24,-3.5 16.86,-5.29 4.15,3.86 8.26,7.73 12.41,11.6 0.62,-6.23 1.26,-12.44 1.88,-18.67 5.03,-3.48 10.05,-6.98 15.07,-10.51 -5.2,-1.95 -10.4,-3.93 -15.59,-5.92 -1.03,-5.99 -2.05,-11.99 -3.06,-17.99 -3.86,5.02 -7.69,10 -11.54,15"
         style="fill:#ffffff;fill-opacity:1;fill-rule:nonzero;stroke:none"
         id="path428" />
      <path
         d="m 2575.16,1387.27 c -5.55,0.03 -11.14,0.05 -16.69,0.05 2.8,5.04 5.61,10.1 8.43,15.14 -2.42,6.06 -4.83,12.09 -7.23,18.11 5.51,-2.09 11.02,-4.22 16.5,-6.35 4.08,3.73 8.18,7.46 12.26,11.17 0.58,-6.37 1.15,-12.75 1.73,-19.1 4.92,-3.77 9.86,-7.58 14.77,-11.37 -5.13,-1.78 -10.27,-3.53 -15.39,-5.31 -1.03,-6.04 -2.06,-12.09 -3.11,-18.15 -3.76,5.28 -7.49,10.55 -11.27,15.81"
         style="fill:#ffffff;fill-opacity:1;fill-rule:nonzero;stroke:none"
         id="path430" />
      <path
         d="m 2688.72,1320.45 c -5.54,0.08 -11.08,0.18 -16.62,0.25 2.8,5.04 5.61,10.08 8.4,15.08 -2.37,6.13 -4.76,12.25 -7.14,18.36 5.45,-2.21 10.94,-4.43 16.4,-6.68 4.07,3.71 8.15,7.4 12.22,11.08 0.58,-6.39 1.13,-12.78 1.71,-19.18 4.89,-3.83 9.82,-7.66 14.72,-11.49 -5.12,-1.74 -10.25,-3.49 -15.36,-5.23 -1.04,-6.06 -2.09,-12.11 -3.14,-18.17 -3.73,5.32 -7.45,10.65 -11.19,15.98"
         style="fill:#ffffff;fill-opacity:1;fill-rule:nonzero;stroke:none"
         id="path432" />
      <path
         d="m 2051.98,1456.17 c -6.43,-2.48 -12.92,-5.02 -19.39,-7.63 3,5.54 5.97,11.07 8.97,16.64 -3.14,3.94 -6.31,7.83 -9.48,11.7 6.56,0.91 13.09,1.71 19.6,2.44 4.51,5.02 9.01,10 13.53,14.98 1.04,-5.12 2.05,-10.24 3.04,-15.39 5.88,-1.04 11.73,-2.17 17.56,-3.36 -5.78,-3.66 -11.59,-7.33 -17.39,-11.06 -0.87,-5.58 -1.76,-11.19 -2.66,-16.78 -4.56,2.88 -9.15,5.71 -13.78,8.46"
         style="fill:#ffffff;fill-opacity:1;fill-rule:nonzero;stroke:none"
         id="path434" />
      <path
         d="m 2183.04,1439.71 c -6.12,-1.53 -12.22,-3.09 -18.36,-4.69 2.91,5.33 5.85,10.68 8.76,16.03 -2.86,4.75 -5.74,9.48 -8.63,14.16 6.16,-0.25 12.3,-0.54 18.41,-0.91 4.36,4.51 8.7,9 13.06,13.51 0.85,-5.6 1.67,-11.21 2.52,-16.83 5.53,-2.09 11,-4.24 16.47,-6.47 -5.52,-2.91 -11.05,-5.84 -16.61,-8.81 -0.95,-5.78 -1.88,-11.54 -2.82,-17.32 -4.25,3.81 -8.53,7.6 -12.8,11.33"
         style="fill:#ffffff;fill-opacity:1;fill-rule:nonzero;stroke:none"
         id="path436" />
      <path
         d="m 2306.84,1402.3 c -5.84,-0.76 -11.69,-1.58 -17.57,-2.42 2.86,5.22 5.72,10.41 8.61,15.61 -2.65,5.37 -5.31,10.72 -7.97,16.03 5.84,-1.13 11.66,-2.26 17.5,-3.49 4.23,4.14 8.44,8.28 12.67,12.38 0.73,-5.94 1.42,-11.91 2.15,-17.89 5.23,-2.91 10.43,-5.88 15.63,-8.87 -5.32,-2.36 -10.66,-4.7 -16.01,-7.11 -0.99,-5.9 -1.99,-11.81 -2.95,-17.71 -4.02,4.53 -8.04,9.02 -12.06,13.47"
         style="fill:#ffffff;fill-opacity:1;fill-rule:nonzero;stroke:none"
         id="path438" />
      <path
         d="m 2425.28,1349.59 c -5.66,-0.27 -11.33,-0.57 -17.03,-0.88 2.86,5.12 5.68,10.22 8.52,15.31 -2.5,5.82 -5,11.59 -7.51,17.35 5.63,-1.72 11.26,-3.5 16.86,-5.3 4.14,3.89 8.26,7.76 12.42,11.61 0.61,-6.22 1.25,-12.45 1.86,-18.66 5.04,-3.49 10.07,-6.99 15.08,-10.52 -5.2,-1.96 -10.39,-3.91 -15.6,-5.9 -1.02,-6.02 -2.03,-11.99 -3.06,-18.01 -3.85,5.02 -7.68,10.02 -11.54,15"
         style="fill:#ffffff;fill-opacity:1;fill-rule:nonzero;stroke:none"
         id="path440" />
      <path
         d="m 2540.33,1287.01 c -5.57,0.02 -11.14,0.04 -16.73,0.04 2.84,5.04 5.64,10.1 8.45,15.14 -2.39,6.05 -4.82,12.11 -7.24,18.14 5.51,-2.13 11.02,-4.26 16.52,-6.4 4.09,3.75 8.17,7.48 12.23,11.21 0.59,-6.39 1.17,-12.76 1.74,-19.12 4.92,-3.79 9.86,-7.58 14.78,-11.37 -5.14,-1.76 -10.26,-3.52 -15.39,-5.29 -1.05,-6.08 -2.07,-12.11 -3.12,-18.19 -3.74,5.31 -7.49,10.57 -11.24,15.84"
         style="fill:#ffffff;fill-opacity:1;fill-rule:nonzero;stroke:none"
         id="path442" />
      <path
         d="m 2653.88,1220.16 c -5.56,0.09 -11.09,0.17 -16.63,0.27 2.82,5.04 5.61,10.06 8.41,15.1 -2.38,6.11 -4.76,12.24 -7.15,18.36 5.46,-2.23 10.95,-4.46 16.4,-6.66 4.06,3.67 8.15,7.36 12.21,11.05 0.58,-6.4 1.13,-12.79 1.72,-19.2 4.9,-3.81 9.81,-7.65 14.72,-11.46 -5.12,-1.74 -10.23,-3.5 -15.38,-5.26 -1.02,-6.03 -2.07,-12.09 -3.12,-18.14 -3.72,5.29 -7.45,10.62 -11.18,15.94"
         style="fill:#ffffff;fill-opacity:1;fill-rule:nonzero;stroke:none"
         id="path444" />
      <path
         d="m 2017.13,1355.9 c -6.45,-2.5 -12.9,-5.02 -19.39,-7.64 2.99,5.55 5.97,11.1 8.96,16.64 -3.14,3.93 -6.29,7.85 -9.45,11.7 6.54,0.9 13.06,1.7 19.58,2.42 4.5,5.02 9.02,10.02 13.55,15 1.01,-5.11 2.01,-10.25 3.02,-15.41 5.88,-1.03 11.75,-2.13 17.56,-3.34 -5.78,-3.63 -11.59,-7.32 -17.4,-11.05 -0.88,-5.59 -1.76,-11.19 -2.64,-16.8 -4.57,2.91 -9.16,5.72 -13.79,8.48"
         style="fill:#ffffff;fill-opacity:1;fill-rule:nonzero;stroke:none"
         id="path446" />
      <path
         d="m 2148.18,1339.41 c -6.1,-1.5 -12.21,-3.06 -18.37,-4.66 2.92,5.35 5.87,10.68 8.77,16.03 -2.84,4.75 -5.73,9.47 -8.61,14.16 6.14,-0.23 12.3,-0.55 18.4,-0.92 4.36,4.52 8.71,9.03 13.06,13.5 0.86,-5.57 1.7,-11.17 2.53,-16.8 5.51,-2.11 10.99,-4.27 16.46,-6.5 -5.52,-2.89 -11.05,-5.84 -16.6,-8.79 -0.94,-5.76 -1.88,-11.54 -2.82,-17.32 -4.27,3.82 -8.53,7.59 -12.82,11.3"
         style="fill:#ffffff;fill-opacity:1;fill-rule:nonzero;stroke:none"
         id="path448" />
      <path
         d="m 2271.99,1302.05 c -5.86,-0.78 -11.7,-1.58 -17.57,-2.46 2.87,5.21 5.73,10.45 8.6,15.62 -2.65,5.38 -5.3,10.71 -7.96,16.04 5.86,-1.11 11.67,-2.29 17.49,-3.48 4.25,4.12 8.47,8.27 12.69,12.39 0.72,-5.96 1.41,-11.94 2.13,-17.91 5.23,-2.93 10.43,-5.9 15.63,-8.91 -5.31,-2.32 -10.67,-4.69 -16,-7.09 -0.99,-5.88 -1.98,-11.8 -2.97,-17.7 -4,4.52 -8.01,9.05 -12.04,13.5"
         style="fill:#ffffff;fill-opacity:1;fill-rule:nonzero;stroke:none"
         id="path450" />
      <path
         d="m 2390.43,1249.3 c -5.65,-0.26 -11.34,-0.53 -17.02,-0.86 2.84,5.11 5.66,10.21 8.5,15.31 -2.49,5.78 -4.99,11.56 -7.5,17.34 5.63,-1.71 11.23,-3.49 16.87,-5.29 4.13,3.87 8.26,7.75 12.4,11.62 0.64,-6.21 1.25,-12.46 1.88,-18.69 5.04,-3.48 10.06,-6.97 15.07,-10.49 -5.2,-1.95 -10.41,-3.96 -15.6,-5.94 -1.02,-5.99 -2.04,-12.01 -3.07,-17.98 -3.84,5.02 -7.67,10 -11.53,14.98"
         style="fill:#ffffff;fill-opacity:1;fill-rule:nonzero;stroke:none"
         id="path452" />
      <path
         d="m 2505.48,1186.72 c -5.57,0.04 -11.15,0.06 -16.72,0.08 2.82,5.02 5.62,10.08 8.45,15.11 -2.41,6.06 -4.84,12.09 -7.24,18.13 5.51,-2.09 11.01,-4.24 16.51,-6.35 4.08,3.71 8.17,7.44 12.23,11.15 0.59,-6.34 1.16,-12.73 1.75,-19.1 4.93,-3.79 9.86,-7.56 14.76,-11.36 -5.11,-1.76 -10.24,-3.54 -15.39,-5.3 -1.03,-6.05 -2.06,-12.11 -3.09,-18.16 -3.76,5.27 -7.51,10.54 -11.26,15.8"
         style="fill:#ffffff;fill-opacity:1;fill-rule:nonzero;stroke:none"
         id="path454" />
      <path
         d="m 2619.03,1119.9 c -5.54,0.08 -11.09,0.16 -16.64,0.28 2.82,5.02 5.62,10.03 8.43,15.05 -2.38,6.14 -4.78,12.25 -7.17,18.38 5.48,-2.22 10.94,-4.47 16.42,-6.7 4.06,3.7 8.12,7.41 12.22,11.1 0.56,-6.41 1.13,-12.81 1.68,-19.18 4.92,-3.85 9.83,-7.68 14.75,-11.51 -5.13,-1.73 -10.25,-3.47 -15.37,-5.21 -1.04,-6.06 -2.09,-12.11 -3.13,-18.16 -3.74,5.29 -7.46,10.62 -11.19,15.95"
         style="fill:#ffffff;fill-opacity:1;fill-rule:nonzero;stroke:none"
         id="path456" />
      <path
         d="m 1982.28,1255.63 c -6.44,-2.49 -12.9,-5.04 -19.38,-7.64 2.99,5.55 5.97,11.09 8.95,16.6 -3.13,3.98 -6.29,7.89 -9.47,11.76 6.56,0.88 13.1,1.7 19.57,2.42 4.54,5 9.06,10 13.58,14.96 1,-5.1 2.03,-10.23 3.03,-15.37 5.88,-1.04 11.71,-2.15 17.55,-3.36 -5.79,-3.63 -11.58,-7.32 -17.4,-11.05 -0.89,-5.59 -1.75,-11.2 -2.64,-16.78 -4.58,2.89 -9.18,5.7 -13.79,8.46"
         style="fill:#ffffff;fill-opacity:1;fill-rule:nonzero;stroke:none"
         id="path458" />
      <path
         d="m 2113.34,1239.14 c -6.11,-1.5 -12.23,-3.07 -18.39,-4.69 2.94,5.35 5.89,10.71 8.8,16.06 -2.86,4.74 -5.74,9.47 -8.64,14.14 6.16,-0.24 12.29,-0.53 18.42,-0.92 4.35,4.53 8.71,9.04 13.04,13.52 0.86,-5.57 1.69,-11.18 2.54,-16.82 5.51,-2.09 11,-4.24 16.47,-6.48 -5.53,-2.9 -11.08,-5.84 -16.61,-8.79 -0.94,-5.77 -1.89,-11.55 -2.84,-17.31 -4.23,3.83 -8.5,7.6 -12.79,11.29"
         style="fill:#ffffff;fill-opacity:1;fill-rule:nonzero;stroke:none"
         id="path460" />
      <path
         d="m 2237.14,1201.78 c -5.85,-0.78 -11.7,-1.6 -17.57,-2.44 2.86,5.21 5.73,10.41 8.59,15.6 -2.64,5.37 -5.29,10.72 -7.95,16.04 5.84,-1.14 11.67,-2.29 17.49,-3.48 4.23,4.14 8.46,8.26 12.69,12.38 0.7,-5.95 1.43,-11.93 2.12,-17.91 5.24,-2.91 10.45,-5.9 15.64,-8.9 -5.32,-2.33 -10.67,-4.69 -16.01,-7.07 -0.99,-5.9 -1.96,-11.8 -2.95,-17.72 -3.99,4.53 -8.03,9.02 -12.05,13.5"
         style="fill:#ffffff;fill-opacity:1;fill-rule:nonzero;stroke:none"
         id="path462" />
      <path
         d="m 2355.59,1149.02 c -5.66,-0.25 -11.35,-0.52 -17.03,-0.84 2.83,5.1 5.67,10.22 8.51,15.32 -2.5,5.78 -5,11.58 -7.5,17.32 5.62,-1.72 11.25,-3.5 16.85,-5.27 4.15,3.86 8.27,7.73 12.42,11.6 0.63,-6.23 1.25,-12.46 1.87,-18.69 5.03,-3.46 10.05,-6.96 15.05,-10.49 -5.18,-1.95 -10.38,-3.93 -15.58,-5.94 -1.02,-5.99 -2.04,-11.99 -3.06,-17.97 -3.84,5 -7.68,10 -11.53,14.96"
         style="fill:#ffffff;fill-opacity:1;fill-rule:nonzero;stroke:none"
         id="path464" />
      <path
         d="m 2470.63,1086.45 c -5.57,0.03 -11.15,0.05 -16.72,0.05 2.83,5.06 5.63,10.1 8.45,15.16 -2.4,6.04 -4.84,12.07 -7.23,18.11 5.5,-2.11 11,-4.22 16.5,-6.35 4.08,3.71 8.17,7.44 12.25,11.15 0.56,-6.35 1.16,-12.71 1.73,-19.1 4.92,-3.77 9.86,-7.58 14.77,-11.39 -5.13,-1.74 -10.26,-3.49 -15.38,-5.25 -1.04,-6.08 -2.07,-12.13 -3.13,-18.19 -3.74,5.3 -7.49,10.57 -11.24,15.81"
         style="fill:#ffffff;fill-opacity:1;fill-rule:nonzero;stroke:none"
         id="path466" />
      <path
         d="m 2584.17,1019.61 c -5.53,0.1 -11.09,0.19 -16.63,0.29 2.81,5.02 5.61,10.04 8.42,15.08 -2.4,6.13 -4.76,12.25 -7.15,18.36 5.46,-2.23 10.95,-4.45 16.4,-6.7 4.08,3.69 8.15,7.38 12.21,11.07 0.59,-6.38 1.15,-12.79 1.71,-19.17 4.91,-3.83 9.83,-7.66 14.74,-11.49 -5.13,-1.74 -10.26,-3.48 -15.36,-5.21 -1.06,-6.06 -2.1,-12.11 -3.15,-18.19 -3.73,5.33 -7.44,10.63 -11.19,15.96"
         style="fill:#ffffff;fill-opacity:1;fill-rule:nonzero;stroke:none"
         id="path468" />
      <g
         id="g470">
        <g
           id="g472"
           clip-path="url(#clipPath476)">
          <path
             d="m 1474.74,33.0117 63.92,-21.2929 578.58,1736.9512 -63.93,21.29 L 1474.74,33.0117"
             style="fill:url(#linearGradient508);fill-opacity:1;fill-rule:nonzero;stroke:none"
             id="path510" />
        </g>
      </g>
      <g
         id="g512">
        <g
           id="g514"
           clip-path="url(#clipPath518)">
          <path
             d="M 1651.04,15.9219 C 1651.04,7.12891 1643.93,0 1635.13,0 h -263.3 c -8.8,0 -15.92,7.12891 -15.92,15.9219 0,8.789 7.12,15.9062 15.92,15.9062 h 263.3 c 8.8,0 15.91,-7.1172 15.91,-15.9062"
             style="fill:url(#linearGradient526);fill-opacity:1;fill-rule:nonzero;stroke:none"
             id="path528" />
        </g>
      </g>
    </g>
  </g>
</svg>
